<svg width="1370" height="330" viewBox="0 0 1370 330" fill="none" xmlns="http://www.w3.org/2000/svg">
<rect width="1370" height="330" fill="white"/>
<path d="M38 178H10C7.78 178 6 179.78 6 182V210C6 211.061 6.42143 212.078 7.17157 212.828C7.92172 213.579 8.93913 214 10 214H38C39.0609 214 40.0783 213.579 40.8284 212.828C41.5786 212.078 42 211.061 42 210V182C42 180.939 41.5786 179.922 40.8284 179.172C40.0783 178.421 39.0609 178 38 178ZM38 182V210H10V182H38Z" fill="black"/>
<rect x="64" y="178" width="200" height="36" rx="2" fill="#FF835C"/>
<path d="M38 98H10C7.78 98 6 99.78 6 102V130C6 131.061 6.42143 132.078 7.17157 132.828C7.92172 133.579 8.93913 134 10 134H38C39.0609 134 40.0783 133.579 40.8284 132.828C41.5786 132.078 42 131.061 42 130V102C42 100.939 41.5786 99.9217 40.8284 99.1716C40.0783 98.4214 39.0609 98 38 98ZM38 102V130H10V102H38Z" fill="black"/>
<rect x="64" y="98" width="200" height="36" rx="2" fill="#FF835C"/>
<path d="M38 290H10V262H30V258H10C7.78 258 6 259.78 6 262V290C6 291.061 6.42143 292.078 7.17157 292.828C7.92172 293.579 8.93913 294 10 294H38C39.0609 294 40.0783 293.579 40.8284 292.828C41.5786 292.078 42 291.061 42 290V274H38V290ZM15.82 272.16L13 275L22 284L42 264L39.18 261.16L22 278.34L15.82 272.16Z" fill="black"/>
<rect x="64" y="258" width="200" height="36" rx="2" fill="#FF835C"/>
<rect x="526" y="81" width="366" height="213" rx="18" fill="#FF835C"/>
<path d="M556.305 196H560.577V189.688L565.977 178.12H561.489L560.001 182.104C559.497 183.448 559.017 184.696 558.513 186.088H558.417C557.913 184.696 557.457 183.448 556.977 182.104L555.489 178.12H550.929L556.305 189.688V196ZM568.797 196.336C570.309 196.336 571.581 195.64 572.709 194.632H572.829L573.117 196H576.597V188.248C576.597 183.976 574.605 182.008 571.077 182.008C568.941 182.008 566.997 182.728 565.197 183.808L566.685 186.616C568.053 185.848 569.181 185.416 570.261 185.416C571.653 185.416 572.229 186.064 572.325 187.168C566.997 187.744 564.741 189.304 564.741 192.184C564.741 194.464 566.277 196.336 568.797 196.336ZM570.261 193.024C569.373 193.024 568.797 192.64 568.797 191.848C568.797 190.888 569.661 190.096 572.325 189.76V191.944C571.701 192.616 571.125 193.024 570.261 193.024ZM579.896 196H584.168V186.88C584.984 186.088 585.56 185.656 586.52 185.656C587.6 185.656 588.104 186.184 588.104 188.08V196H592.376V187.552C592.376 184.144 591.104 182.008 588.128 182.008C586.28 182.008 584.888 182.944 583.76 184.048H583.688L583.376 182.344H579.896V196ZM600.589 196.336C601.885 196.336 603.205 195.64 604.165 194.68H604.261L604.573 196H608.053V176.824H603.781V181.384L603.925 183.424C603.037 182.56 602.149 182.008 600.637 182.008C597.805 182.008 594.997 184.696 594.997 189.16C594.997 193.624 597.181 196.336 600.589 196.336ZM601.717 192.832C600.253 192.832 599.389 191.728 599.389 189.112C599.389 186.592 600.469 185.488 601.645 185.488C602.365 185.488 603.133 185.704 603.781 186.304V191.68C603.181 192.568 602.533 192.832 601.717 192.832ZM617.682 196.336C619.266 196.336 621.138 195.784 622.554 194.776L621.138 192.208C620.154 192.784 619.242 193.072 618.258 193.072C616.53 193.072 615.234 192.304 614.85 190.432H622.866C622.962 190.096 623.058 189.352 623.058 188.584C623.058 184.864 621.138 182.008 617.202 182.008C613.914 182.008 610.722 184.744 610.722 189.16C610.722 193.696 613.746 196.336 617.682 196.336ZM614.778 187.624C615.066 186.016 616.098 185.272 617.274 185.272C618.834 185.272 619.434 186.28 619.434 187.624H614.778ZM625.787 196H630.059V188.2C630.755 186.4 631.979 185.752 632.987 185.752C633.587 185.752 633.995 185.848 634.499 185.968L635.195 182.296C634.811 182.128 634.355 182.008 633.539 182.008C632.171 182.008 630.659 182.896 629.651 184.72H629.579L629.267 182.344H625.787V196ZM642.83 196.336C644.414 196.336 646.286 195.784 647.702 194.776L646.286 192.208C645.302 192.784 644.39 193.072 643.406 193.072C641.678 193.072 640.382 192.304 639.998 190.432H648.014C648.11 190.096 648.206 189.352 648.206 188.584C648.206 184.864 646.286 182.008 642.35 182.008C639.062 182.008 635.87 184.744 635.87 189.16C635.87 193.696 638.894 196.336 642.83 196.336ZM639.926 187.624C640.214 186.016 641.246 185.272 642.422 185.272C643.982 185.272 644.582 186.28 644.582 187.624H639.926ZM656.959 196.336C658.399 196.336 660.127 195.904 661.471 194.728L659.815 191.92C659.119 192.472 658.303 192.88 657.439 192.88C655.783 192.88 654.535 191.44 654.535 189.16C654.535 186.904 655.711 185.464 657.607 185.464C658.183 185.464 658.711 185.68 659.335 186.184L661.327 183.472C660.295 182.584 658.999 182.008 657.343 182.008C653.527 182.008 650.167 184.648 650.167 189.16C650.167 193.696 653.119 196.336 656.959 196.336ZM667 196.336C668.512 196.336 669.784 195.64 670.912 194.632H671.032L671.32 196H674.8V188.248C674.8 183.976 672.808 182.008 669.28 182.008C667.144 182.008 665.2 182.728 663.4 183.808L664.888 186.616C666.256 185.848 667.384 185.416 668.464 185.416C669.856 185.416 670.432 186.064 670.528 187.168C665.2 187.744 662.944 189.304 662.944 192.184C662.944 194.464 664.48 196.336 667 196.336ZM668.464 193.024C667.576 193.024 667 192.64 667 191.848C667 190.888 667.864 190.096 670.528 189.76V191.944C669.904 192.616 669.328 193.024 668.464 193.024ZM704.367 187.528C704.367 182.08 700.503 177.856 694.383 177.856C687.975 177.856 683.055 182.704 683.055 188.416C683.055 192.52 685.311 195.736 688.287 195.736C691.119 195.736 693.279 192.52 694.695 187.72C695.367 185.488 695.799 183.4 696.111 181.456C698.871 182.104 700.383 184.312 700.383 187.408C700.383 190.576 698.343 192.712 695.295 193.456C694.599 193.624 693.951 193.768 692.943 193.888L695.151 197.344C701.391 196.288 704.367 192.592 704.367 187.528ZM686.823 188.032C686.823 185.752 688.599 182.512 692.151 181.552C691.863 183.424 691.455 185.32 690.927 186.952C690.063 189.736 689.343 191.2 688.383 191.2C687.543 191.2 686.823 190.12 686.823 188.032ZM714.711 176.104L710.463 177.064C710.751 177.568 710.991 178.168 711.327 179.344C711.519 179.944 711.735 180.76 711.999 181.72C710.871 181.912 710.031 182.056 709.671 182.128C708.687 182.272 707.775 182.368 706.791 182.464L707.799 186.376C708.687 186.16 710.679 185.728 712.935 185.248C713.991 189.184 715.119 193.576 715.575 195.136C715.839 196.048 716.031 197.104 716.175 197.824L720.495 196.816C720.255 196.192 719.823 194.872 719.655 194.344C719.151 192.64 717.975 188.344 716.895 184.408C719.775 183.832 722.343 183.304 723.087 183.184C722.391 184.384 720.687 186.688 718.983 188.128L722.727 189.88C724.719 187.552 727.623 183.232 728.727 180.736L726.063 178.792C725.631 178.984 725.007 179.2 724.431 179.296C723.183 179.584 719.391 180.328 715.935 180.976C715.671 179.992 715.407 179.104 715.215 178.408C714.975 177.616 714.831 176.776 714.711 176.104ZM735.831 177.376L733.071 180.328C734.799 181.552 737.823 184.192 739.095 185.584L742.071 182.536C740.631 181 737.487 178.504 735.831 177.376ZM732.279 193.312L734.751 197.152C737.775 196.672 740.895 195.424 743.343 193.984C747.351 191.632 750.759 188.296 752.679 184.888L750.423 180.784C748.815 184.168 745.575 187.888 741.255 190.384C738.903 191.752 735.807 192.832 732.279 193.312ZM755.415 183.76V187.552C756.087 187.504 757.143 187.456 757.839 187.456H764.103C763.959 189.328 763.503 190.984 762.567 192.376C761.607 193.72 759.927 195.088 758.319 195.688L761.727 198.136C763.911 197.032 765.783 195.088 766.599 193.384C767.415 191.752 768.015 189.856 768.183 187.456H773.559C774.279 187.456 775.287 187.48 775.935 187.528V183.76C775.263 183.88 774.063 183.928 773.559 183.928H757.839C757.095 183.928 756.159 183.856 755.415 183.76ZM772.863 176.08L770.607 176.992C770.727 177.184 770.871 177.4 770.991 177.616C770.199 177.712 769.335 177.76 768.543 177.76H760.935C760.119 177.76 758.967 177.688 758.151 177.568V181.288C758.943 181.24 760.095 181.192 760.935 181.192H768.543C769.455 181.192 770.439 181.24 771.327 181.288V178.168C771.735 178.912 772.143 179.704 772.455 180.328L774.735 179.368C774.303 178.528 773.463 176.968 772.863 176.08ZM775.815 174.928L773.559 175.84C774.207 176.752 774.975 178.168 775.455 179.152L777.711 178.192C777.303 177.376 776.439 175.84 775.815 174.928ZM782.175 194.944L784.935 197.344C785.607 196.888 786.231 196.696 786.591 196.576C792.063 194.656 797.079 191.848 800.463 187.888L798.399 184.576C795.279 188.272 790.047 191.296 786.519 192.376V180.544C786.519 179.488 786.615 178.624 786.783 177.52H782.223C782.391 178.312 782.535 179.488 782.535 180.544V193.168C782.535 193.768 782.511 194.224 782.175 194.944ZM813.111 176.68L809.007 176.512C809.055 177.376 809.031 178.024 808.887 179.176C808.863 179.368 808.839 179.584 808.791 179.824C807.375 179.776 805.695 179.584 804.231 179.344V182.944C805.359 183.064 806.679 183.112 808.119 183.16C807.495 185.752 806.535 188.8 805.431 190.96L808.863 192.16C809.079 191.752 809.247 191.464 809.487 191.152C810.831 189.376 813.159 188.368 815.871 188.368C817.959 188.368 819.063 189.472 819.063 190.696C819.063 194.008 813.807 194.464 808.695 193.576L809.727 197.344C817.767 198.208 823.023 196.192 823.023 190.6C823.023 187.36 820.239 185.248 816.327 185.248C814.383 185.248 812.679 185.584 810.807 186.424C811.095 185.392 811.383 184.24 811.647 183.088C814.935 182.92 818.775 182.44 821.079 182.08L821.007 178.624C818.127 179.224 815.031 179.584 812.391 179.728L812.463 179.368C812.679 178.504 812.823 177.64 813.111 176.68ZM827.847 187.432L829.455 190.912C830.031 190.648 831.351 189.952 832.911 189.184C833.079 189.592 833.223 189.952 833.367 190.312C834.183 192.376 835.407 195.808 835.983 198.304L839.631 197.44C838.959 195.28 837.447 190.84 836.607 188.896C836.463 188.536 836.295 188.152 836.103 187.72C838.095 186.856 840.039 186.184 841.287 186.184C842.415 186.184 843.135 186.76 843.135 187.456C843.135 188.68 842.295 189.304 840.999 189.304C840.327 189.304 839.271 189.088 838.335 188.68L838.263 192.016C838.959 192.28 840.279 192.616 841.287 192.616C845.031 192.616 846.759 190.672 846.759 187.432C846.759 185.296 845.103 182.944 841.431 182.944C840.471 182.944 839.319 183.208 838.071 183.592L840.231 182.056C839.703 181.456 838.287 180.208 837.567 179.752L834.999 181.624C835.815 182.2 836.775 183.064 837.495 183.808C836.631 184.096 835.719 184.456 834.783 184.84C834.495 184.216 834.207 183.664 833.991 183.256C833.823 182.896 833.463 182.176 833.199 181.696L829.599 183.064C830.103 183.664 830.559 184.408 830.847 184.912C831.063 185.272 831.279 185.704 831.519 186.184C831.087 186.376 830.655 186.544 830.223 186.712C829.911 186.832 828.855 187.168 827.847 187.432ZM864.111 178.168L859.983 176.512C859.479 177.688 858.951 178.6 858.639 179.272C857.367 181.552 852.639 191.32 850.863 196.096L854.991 197.488C855.375 196.168 856.095 193.576 856.671 192.184C857.487 190.216 858.591 188.704 860.055 188.704C860.799 188.704 861.183 189.136 861.255 189.856C861.327 190.648 861.327 192.664 861.423 193.888C861.543 195.808 863.007 197.392 865.719 197.392C869.535 197.392 871.863 194.632 873.111 190.36L869.943 187.792C869.223 191.008 868.095 193.36 866.343 193.36C865.695 193.36 865.119 193.072 865.023 192.28C864.879 191.368 864.951 189.4 864.903 188.536C864.783 186.472 863.751 185.272 861.831 185.272C861.063 185.272 860.295 185.368 859.551 185.584C860.703 183.568 862.095 181.024 863.343 179.272C863.607 178.912 863.847 178.504 864.111 178.168Z" fill="black"/>
<path d="M631.264 31.624L628.912 32.584C629.32 33.232 629.704 33.904 630.064 34.576C629.608 34.624 629.152 34.624 628.84 34.624H618.256C617.464 34.624 615.88 34.504 615.136 34.408V38.512C615.76 38.464 617.08 38.392 618.256 38.392H628.816C628.504 40.312 627.712 42.688 626.176 44.584C624.28 46.936 621.568 49.048 616.744 50.128L619.912 53.608C624.136 52.24 627.52 49.768 629.68 46.864C631.744 44.08 632.728 40.432 633.304 38.176C633.448 37.648 633.664 36.784 633.928 36.256L632.2 35.152L633.064 34.792C632.656 33.928 631.912 32.584 631.264 31.624ZM634.768 31L632.392 31.96C633.064 32.872 633.784 34.216 634.288 35.2L636.664 34.192C636.232 33.376 635.392 31.912 634.768 31ZM642.256 33.28V37.024C642.976 36.952 644.128 36.928 644.944 36.928H653.992C654.904 36.928 656.2 36.976 656.872 37.024V33.28C656.176 33.376 654.808 33.424 654.04 33.424H644.944C644.104 33.424 642.928 33.376 642.256 33.28ZM659.056 40.624L656.488 39.016C656.104 39.184 655.384 39.304 654.472 39.304H643.048C642.232 39.304 641.104 39.232 640 39.136V42.88C641.08 42.784 642.448 42.76 643.048 42.76H653.968C653.56 43.864 652.912 45.064 651.736 46.24C650.008 47.968 647.224 49.552 643.48 50.344L646.384 53.632C649.456 52.744 652.576 50.992 654.952 48.328C656.728 46.336 657.736 44.08 658.528 41.776C658.624 41.488 658.864 40.984 659.056 40.624ZM675.16 32.176H670.672C670.864 33.376 670.888 33.832 670.888 34.624V36.232H665.872C664.912 36.232 664.192 36.208 663.304 36.112C663.4 36.712 663.424 37.744 663.424 38.296V42.424C663.424 43.168 663.376 44.008 663.304 44.704H667.312C667.24 44.176 667.216 43.336 667.216 42.736V39.664H678.28C677.944 41.848 677.392 43.768 676.24 45.376C674.944 47.128 673.12 48.328 671.392 49.048C670.264 49.504 668.728 49.936 667.48 50.152L670.504 53.656C674.704 52.576 678.496 49.984 680.464 46.216C681.568 44.104 682.168 42.16 682.648 39.64C682.744 39.16 682.96 38.104 683.176 37.48L680.656 35.944C680.176 36.112 679.528 36.232 678.472 36.232H674.968V34.624C674.968 33.832 675.016 33.376 675.16 32.176ZM707.416 32.344L705.52 32.944C706 33.928 706.408 35.152 706.744 36.184L708.64 35.584C708.376 34.696 707.872 33.328 707.416 32.344ZM702.952 41.968V41.2H704.248C705.616 41.2 706.456 41.2 707.128 41.272V37.432C706.288 37.576 705.616 37.624 704.224 37.624H702.952V35.368C702.952 34.768 702.976 34.264 703.024 33.808C703.48 34.744 703.816 35.968 704.152 37L706.072 36.376C705.832 35.464 705.352 34.12 704.896 33.136L703.048 33.712C703.072 33.448 703.096 33.208 703.12 32.992H698.992C699.088 33.592 699.136 34.384 699.136 35.368V37.624H694.096V35.656C694.096 34.624 694.192 33.808 694.264 33.232H690.136C690.232 34.072 690.304 34.84 690.304 35.632V37.624H688.576C687.28 37.624 686.416 37.456 685.864 37.36V41.296C686.56 41.248 687.28 41.2 688.576 41.2H690.304V44.104C690.304 45.28 690.232 46.216 690.16 46.816H694.216C694.168 46.216 694.096 45.28 694.096 44.104V41.2H699.136V42.064C699.136 47.488 697.192 49.576 692.392 51.16L695.512 54.088C701.488 51.472 702.952 47.656 702.952 41.968ZM732.664 53.104C732.328 50.632 731.056 46.984 729.712 44.128L726.736 45.04C727.288 46.312 727.816 47.728 728.248 49.12C727.216 49.24 726.208 49.336 725.224 49.432C725.944 46.696 726.712 43.168 727.24 39.88L723.616 39.352C723.328 42.64 722.608 46.744 721.864 49.744L720.304 49.864C721.192 46.792 721.384 43.336 721.384 40.792V38.296H731.992V35.152H726.88V31.456H723.424V35.152H718.072V40.768C718.072 44.08 717.88 48.76 715.72 52.024C715.816 51.592 715.84 51.088 715.84 50.464V45.376C716.488 45.208 717.136 45.016 717.76 44.848L717.352 41.752L715.84 42.112V39.064H717.4V35.872H715.84V31.504H712.504V35.872H709.936V39.064H712.504V42.856C711.352 43.12 710.296 43.336 709.408 43.48L710.104 46.864L712.504 46.24V50.44C712.504 50.776 712.384 50.896 712.072 50.896C711.76 50.896 710.8 50.896 709.936 50.848C710.368 51.808 710.8 53.32 710.896 54.256C712.576 54.256 713.824 54.136 714.712 53.56C715.192 53.272 715.48 52.864 715.648 52.312C716.44 52.696 717.784 53.632 718.36 54.184C719.152 53.08 719.728 51.76 720.16 50.344L720.664 53.104C723.04 52.816 726.088 52.456 729.04 52.096C729.208 52.84 729.328 53.56 729.4 54.16L732.664 53.104ZM747.544 50.176V45.256H748.144C748.576 47.008 749.152 48.568 749.896 49.912L747.544 50.176ZM753.352 45.256C752.968 45.784 752.464 46.408 751.936 46.984C751.648 46.432 751.384 45.856 751.192 45.256H753.352ZM754.048 45.256H756.4V42.232H747.448V41.416H754.168V39.04H747.448V38.272H754.168V35.896H747.448V35.176H755.056V32.248H744.112V42.232H742.552V43.12H737.44L737.656 41.32H742.24V32.656H734.2V35.848H739.096V38.128H734.848C734.632 40.84 734.152 44.224 733.72 46.432L736.936 46.768L737.032 46.216H739.072C738.88 49.168 738.64 50.464 738.304 50.848C738.064 51.088 737.824 51.16 737.464 51.16C737.008 51.16 736.192 51.136 735.304 51.064C735.832 51.928 736.216 53.32 736.264 54.304C737.44 54.328 738.544 54.304 739.24 54.184C740.032 54.064 740.656 53.8 741.256 53.08C741.928 52.264 742.264 50.08 742.552 45.256H744.208V50.488C743.536 50.536 742.912 50.584 742.36 50.632L742.864 53.896C745 53.608 747.64 53.296 750.136 52.936L750.016 50.128C751.096 51.976 752.536 53.392 754.552 54.328C755.032 53.392 756.064 51.952 756.832 51.256C755.44 50.776 754.312 50.032 753.424 49.072C754.336 48.352 755.392 47.44 756.424 46.528L754.048 45.256ZM776.272 46.36C776.008 46.912 775.672 47.416 775.312 47.896C775.168 47.416 775.024 46.912 774.904 46.36H776.272ZM765.352 43.696C764.752 42.64 763.816 41.104 763.384 40.432V39.496H765.328V36.76C765.904 37.312 766.504 37.888 766.936 38.416C766.48 39.112 766.024 39.784 765.592 40.36L764.896 40.408L765.352 42.928C766.648 42.784 768.04 42.616 769.48 42.424C769.504 42.664 769.528 42.88 769.528 43.072L771.328 42.424C771.376 42.856 771.424 43.288 771.472 43.696H765.352ZM768.304 40.144L768.808 39.496C768.88 39.688 768.928 39.88 769 40.096L768.304 40.144ZM769.048 39.16C769.672 38.296 770.32 37.36 770.92 36.448C770.968 37.672 771.016 38.872 771.112 40.024C770.968 39.568 770.8 39.088 770.632 38.656L769.048 39.16ZM774.04 39.952C773.968 38.92 773.92 37.864 773.872 36.784C774.448 37.288 775.024 37.864 775.456 38.392C775.096 38.944 774.712 39.472 774.352 39.928L774.04 39.952ZM777.136 39.688C777.328 39.448 777.52 39.184 777.712 38.92C777.808 39.136 777.904 39.376 777.976 39.616L777.136 39.688ZM774.448 43.696C774.376 43.264 774.328 42.832 774.28 42.4C774.928 42.304 775.6 42.208 776.296 42.112L775.168 43.096C775.384 43.264 775.624 43.48 775.864 43.696H774.448ZM777.184 46.36H780.16V43.696H778.432L778.84 43.336C778.528 42.928 777.928 42.4 777.352 41.968L778.552 41.776C778.624 42.112 778.672 42.4 778.696 42.664L780.736 41.848C780.616 40.888 780.136 39.376 779.608 38.2L777.736 38.896C778.576 37.744 779.416 36.496 780.184 35.368L777.832 34.24C777.544 34.864 777.16 35.56 776.752 36.28C776.632 36.16 776.512 36.016 776.368 35.896C776.968 34.96 777.664 33.688 778.384 32.512L775.792 31.576C775.552 32.44 775.144 33.544 774.736 34.504L774.472 34.288L773.848 35.248C773.824 34.024 773.848 32.776 773.872 31.504H770.848C770.848 32.68 770.848 33.856 770.872 35.008L769.288 34.24C769 34.864 768.64 35.584 768.232 36.304C768.112 36.184 767.992 36.04 767.872 35.92C768.448 34.96 769.12 33.688 769.816 32.536L767.248 31.576C767.008 32.44 766.624 33.544 766.216 34.504L765.928 34.288L764.68 36.184L764.848 36.328H763.384V31.48H760.288V36.328H757.96V39.496H760.072C759.568 42.16 758.56 45.232 757.36 47.032C757.816 47.824 758.488 49.12 758.776 50.008C759.328 49.096 759.856 47.92 760.288 46.6V54.28H763.384V44.608C763.744 45.496 764.08 46.408 764.296 47.056L765.352 45.496V46.36H766.744C766.504 48.544 765.952 50.584 763.864 51.952C764.56 52.456 765.4 53.536 765.784 54.256C767.44 53.128 768.424 51.664 769 50.008C769.576 50.512 770.128 51.04 770.44 51.448L772.264 49.12C771.712 48.52 770.656 47.68 769.696 47.008L769.768 46.36H771.904C772.192 47.776 772.552 49.048 772.984 50.152C771.88 50.92 770.632 51.568 769.216 52.024C769.792 52.576 770.656 53.632 771.016 54.256C772.192 53.824 773.32 53.272 774.328 52.6C775.192 53.68 776.248 54.28 777.544 54.28C779.56 54.28 780.352 53.608 780.856 50.824C780.184 50.512 779.248 49.912 778.648 49.264C778.528 51.016 778.312 51.4 777.784 51.4C777.376 51.4 776.992 51.184 776.632 50.752C777.688 49.72 778.576 48.52 779.272 47.152L777.184 46.36ZM794.104 38.776C794.176 41.56 794.968 42.472 797.968 42.472H800.8C803.2 42.472 804.112 41.56 804.472 38.344C803.536 38.152 802.096 37.6 801.4 37.072C801.304 39.04 801.16 39.376 800.464 39.376H798.496C797.704 39.376 797.584 39.28 797.584 38.392V37.528C799.528 36.952 801.616 36.208 803.392 35.344L801.208 32.824C800.224 33.424 798.928 34.072 797.584 34.648V31.6H794.104V38.68C793.672 37.072 792.496 34.792 791.392 33.04L788.416 34.144C788.728 34.672 789.016 35.248 789.304 35.824L787.048 35.92C787.6 34.72 788.152 33.376 788.656 32.056L785.008 31.312C784.672 32.776 784.096 34.576 783.472 36.064C782.8 36.088 782.176 36.112 781.6 36.136L781.864 39.424C784.312 39.256 787.456 39.04 790.576 38.824C790.72 39.256 790.84 39.664 790.912 40.024L794.104 38.776ZM786.232 47.344V46.408H788.968V47.344H786.232ZM788.968 43.048V43.864H786.232V43.048H788.968ZM792.424 40.216H783.016V54.256H786.232V49.888H788.968V50.824C788.968 51.112 788.872 51.184 788.584 51.184C788.296 51.208 787.384 51.208 786.688 51.16C787.12 51.976 787.624 53.32 787.792 54.232C789.208 54.232 790.336 54.184 791.248 53.656C792.16 53.152 792.424 52.312 792.424 50.896V40.216ZM798.52 51.112C797.704 51.112 797.56 51.016 797.56 50.104V48.688C799.6 48.016 801.784 47.176 803.608 46.216L801.328 43.672C800.32 44.344 798.976 45.088 797.56 45.712V42.856H794.104V50.128C794.104 53.152 794.872 54.136 797.968 54.136H800.896C803.368 54.136 804.256 53.128 804.616 49.648C803.68 49.432 802.288 48.904 801.568 48.376C801.448 50.68 801.304 51.112 800.56 51.112H798.52Z" fill="black"/>
<path d="M1141.9 46.328L1138.87 44.816C1138.39 45.032 1136.93 45.176 1136.23 45.176H1129.37C1128.55 45.176 1127.26 45.08 1126.44 44.984V49.064C1127.35 48.992 1128.39 48.944 1129.39 48.944H1137.03C1136.95 50.432 1136.21 54.848 1135.78 57.416H1126.37C1125.58 57.416 1124.64 57.344 1123.85 57.2V61.424C1124.69 61.328 1125.6 61.28 1126.37 61.28H1142.26C1142.86 61.28 1143.94 61.328 1144.63 61.424V57.2C1144.01 57.296 1143.17 57.416 1142.26 57.416H1140.05C1140.51 54.728 1141.32 49.736 1141.61 47.6C1141.63 47.408 1141.78 46.712 1141.9 46.328ZM1148.31 50.48V55.064C1149.29 54.992 1151.09 54.92 1152.46 54.92H1165.2C1166.19 54.92 1167.53 55.04 1168.15 55.064V50.48C1167.46 50.528 1166.28 50.648 1165.2 50.648H1152.46C1151.28 50.648 1149.27 50.552 1148.31 50.48ZM1192.19 42.344L1190.29 42.944C1190.77 43.928 1191.18 45.152 1191.52 46.184L1193.41 45.584C1193.15 44.696 1192.65 43.328 1192.19 42.344ZM1187.73 51.968V51.2H1189.02C1190.39 51.2 1191.23 51.2 1191.9 51.272V47.432C1191.06 47.576 1190.39 47.624 1189 47.624H1187.73V45.368C1187.73 44.768 1187.75 44.264 1187.8 43.808C1188.25 44.744 1188.59 45.968 1188.93 47L1190.85 46.376C1190.61 45.464 1190.13 44.12 1189.67 43.136L1187.82 43.712C1187.85 43.448 1187.87 43.208 1187.89 42.992H1183.77C1183.86 43.592 1183.91 44.384 1183.91 45.368V47.624H1178.87V45.656C1178.87 44.624 1178.97 43.808 1179.04 43.232H1174.91C1175.01 44.072 1175.08 44.84 1175.08 45.632V47.624H1173.35C1172.05 47.624 1171.19 47.456 1170.64 47.36V51.296C1171.33 51.248 1172.05 51.2 1173.35 51.2H1175.08V54.104C1175.08 55.28 1175.01 56.216 1174.93 56.816H1178.99C1178.94 56.216 1178.87 55.28 1178.87 54.104V51.2H1183.91V52.064C1183.91 57.488 1181.97 59.576 1177.17 61.16L1180.29 64.088C1186.26 61.472 1187.73 57.656 1187.73 51.968ZM1205.1 43.136L1200.78 42.68C1200.83 44.168 1200.66 45.824 1200.33 47.696C1199.25 47.768 1198.26 47.84 1197.57 47.864C1196.61 47.888 1195.69 47.936 1194.76 47.864L1195.09 51.776C1195.89 51.632 1197.28 51.44 1198.05 51.32C1198.38 51.272 1198.91 51.2 1199.53 51.104C1198.65 54.392 1197.09 58.952 1194.81 62.024L1198.6 63.536C1200.64 60.248 1202.44 54.44 1203.4 50.696C1203.88 50.648 1204.26 50.624 1204.55 50.624C1206.04 50.624 1206.76 50.84 1206.76 52.592C1206.76 54.824 1206.47 57.632 1205.87 58.832C1205.56 59.48 1205.01 59.744 1204.24 59.744C1203.64 59.744 1202.2 59.48 1201.31 59.24L1201.93 63.056C1202.8 63.248 1203.93 63.392 1204.86 63.392C1206.81 63.392 1208.22 62.792 1209.04 61.064C1210.07 58.952 1210.38 55.016 1210.38 52.208C1210.38 48.608 1208.56 47.312 1205.8 47.312C1205.37 47.312 1204.81 47.336 1204.17 47.384C1204.31 46.76 1204.45 46.088 1204.6 45.44C1204.74 44.768 1204.93 43.856 1205.1 43.136ZM1215.49 40.952L1213.24 41.864C1213.89 42.776 1214.65 44.192 1215.13 45.176L1217.39 44.216C1216.98 43.4 1216.12 41.864 1215.49 40.952ZM1212.54 42.104L1210.29 43.016C1210.86 43.832 1211.46 45.008 1211.92 45.944L1209.88 46.808C1211.61 49.016 1213.21 53.264 1213.79 56.048L1217.51 54.344C1216.86 52.136 1215.06 47.984 1213.62 45.728L1214.41 45.392C1213.98 44.552 1213.14 42.992 1212.54 42.104ZM1226.49 51.776H1230.3V48.56H1226.49V45.464C1227.85 45.104 1229.17 44.696 1230.37 44.216L1227.93 41.552C1225.55 42.632 1221.85 43.568 1218.4 44.12C1218.78 44.84 1219.26 46.04 1219.41 46.832C1220.58 46.664 1221.83 46.472 1223.08 46.232V48.56H1218.73V51.776H1222.38C1221.35 54.008 1219.79 56.432 1218.18 57.992C1218.73 58.928 1219.6 60.416 1219.93 61.448C1221.09 60.224 1222.14 58.52 1223.08 56.672V64.256H1226.49V56.696C1227.25 57.536 1227.97 58.4 1228.5 59.072L1230.47 56.048C1229.89 55.568 1227.71 53.744 1226.49 52.856V51.776ZM1234.6 44.432H1231.21V58.04H1234.6V44.432ZM1236.78 41.936V60.104C1236.78 60.56 1236.59 60.704 1236.13 60.704C1235.61 60.704 1234.02 60.704 1232.51 60.632C1233.01 61.616 1233.57 63.248 1233.71 64.256C1235.92 64.256 1237.65 64.136 1238.77 63.584C1239.88 63.008 1240.24 62.072 1240.24 60.128V41.936H1236.78ZM1255.86 54.152V51.776H1260.13V54.152H1255.86ZM1248.4 54.152C1248.45 53.312 1248.47 52.52 1248.47 51.776H1252.33V54.152H1248.4ZM1252.33 46.352V48.536H1248.47V46.352H1252.33ZM1260.13 48.536H1255.86V46.352H1260.13V48.536ZM1263.61 43.04H1245.01V51.608C1245.01 54.992 1244.82 59.312 1242.21 62.168C1242.97 62.6 1244.41 63.776 1244.97 64.424C1246.65 62.624 1247.56 60.056 1248.01 57.44H1252.33V63.944H1255.86V57.44H1260.13V60.32C1260.13 60.728 1259.97 60.872 1259.53 60.872C1259.1 60.872 1257.54 60.896 1256.37 60.8C1256.82 61.688 1257.35 63.2 1257.47 64.136C1259.61 64.16 1261.09 64.088 1262.2 63.536C1263.25 63.008 1263.61 62.096 1263.61 60.368V43.04ZM1281.81 42.464H1277.61C1277.68 42.824 1277.77 43.712 1277.87 44.864C1277.87 44.936 1277.87 45.032 1277.89 45.128C1274.8 45.176 1270.55 45.272 1267.77 45.248L1267.86 48.728C1270.79 48.584 1274.34 48.44 1277.94 48.392C1277.97 48.8 1277.97 49.208 1277.97 49.616C1277.77 49.592 1277.58 49.592 1277.37 49.592C1274.58 49.592 1272.25 51.368 1272.25 54.272C1272.25 57.368 1274.75 58.88 1276.5 58.88C1276.65 58.88 1276.79 58.88 1276.93 58.856C1275.52 59.96 1273.53 60.536 1271.44 60.968L1274.53 64.064C1280.53 62.432 1282.53 58.256 1282.53 55.184C1282.53 53.888 1282.21 52.688 1281.59 51.752C1281.59 50.744 1281.59 49.52 1281.57 48.368C1284.59 48.392 1286.85 48.44 1288.26 48.512L1288.31 45.08C1287.06 45.056 1283.85 45.104 1281.61 45.104V44.84C1281.64 44.408 1281.73 42.92 1281.81 42.464ZM1275.73 54.2C1275.73 53.096 1276.53 52.64 1277.27 52.64C1277.82 52.64 1278.28 52.856 1278.59 53.288C1278.85 55.112 1278.04 55.664 1277.27 55.664C1276.5 55.664 1275.73 55.064 1275.73 54.2ZM1299.45 59C1299.45 58.52 1299.9 58.04 1300.69 58.04C1301.7 58.04 1302.42 58.904 1302.54 60.224C1302.21 60.248 1301.85 60.272 1301.46 60.272C1300.24 60.272 1299.45 59.744 1299.45 59ZM1294.81 43.376L1294.93 47.144C1295.51 47.048 1296.37 46.976 1297.09 46.928C1298.39 46.832 1300.86 46.736 1302.06 46.712C1300.91 47.744 1298.68 49.472 1297.33 50.576C1295.92 51.752 1293.11 54.128 1291.57 55.328L1294.21 58.064C1296.52 55.256 1299.04 53.144 1302.54 53.144C1305.18 53.144 1307.29 54.44 1307.29 56.504C1307.29 57.68 1306.84 58.616 1305.88 59.264C1305.47 56.984 1303.6 55.28 1300.67 55.28C1297.93 55.28 1296.01 57.248 1296.01 59.36C1296.01 62 1298.82 63.584 1302.21 63.584C1308.42 63.584 1311.13 60.296 1311.13 56.552C1311.13 52.928 1307.89 50.288 1303.77 50.288C1303.19 50.288 1302.71 50.312 1302.09 50.432C1303.41 49.424 1305.52 47.696 1306.86 46.784C1307.46 46.352 1308.09 45.992 1308.71 45.608L1306.91 43.04C1306.6 43.136 1305.93 43.232 1304.77 43.328C1303.36 43.448 1298.56 43.52 1297.26 43.52C1296.47 43.52 1295.56 43.472 1294.81 43.376ZM1321.38 62.336C1325.7 62.336 1328.2 59.72 1328.2 56.744C1328.2 54.224 1326.88 52.736 1324.67 51.848L1322.44 50.96C1320.85 50.336 1319.75 49.952 1319.75 48.944C1319.75 48.008 1320.54 47.48 1321.86 47.48C1323.25 47.48 1324.36 47.96 1325.53 48.848L1327.67 46.16C1326.11 44.6 1323.93 43.808 1321.86 43.808C1318.07 43.808 1315.38 46.208 1315.38 49.208C1315.38 51.8 1317.13 53.36 1319.01 54.104L1321.29 55.064C1322.82 55.712 1323.81 56.048 1323.81 57.08C1323.81 58.04 1323.06 58.64 1321.48 58.64C1320.06 58.64 1318.41 57.896 1317.16 56.816L1314.71 59.768C1316.56 61.472 1319.05 62.336 1321.38 62.336ZM1331.17 62H1335.25V56.072C1335.25 53.912 1334.89 51.464 1334.69 49.472H1334.81L1336.57 53.384L1340.98 62H1345.35V44.12H1341.27V50.048C1341.27 52.184 1341.63 54.752 1341.85 56.648H1341.73L1339.97 52.688L1335.53 44.12H1331.17V62ZM1355.04 62.336C1359.36 62.336 1361.85 59.72 1361.85 56.744C1361.85 54.224 1360.53 52.736 1358.33 51.848L1356.09 50.96C1354.51 50.336 1353.41 49.952 1353.41 48.944C1353.41 48.008 1354.2 47.48 1355.52 47.48C1356.91 47.48 1358.01 47.96 1359.19 48.848L1361.33 46.16C1359.77 44.6 1357.58 43.808 1355.52 43.808C1351.73 43.808 1349.04 46.208 1349.04 49.208C1349.04 51.8 1350.79 53.36 1352.66 54.104L1354.94 55.064C1356.48 55.712 1357.46 56.048 1357.46 57.08C1357.46 58.04 1356.72 58.64 1355.13 58.64C1353.72 58.64 1352.06 57.896 1350.81 56.816L1348.37 59.768C1350.21 61.472 1352.71 62.336 1355.04 62.336Z" fill="black"/>
<path d="M94.6333 62H98.9293V47.696H103.777V44.12H89.8093V47.696H94.6333V62ZM113.1 62.336C117.972 62.336 121.284 58.832 121.284 52.976C121.284 47.144 117.972 43.808 113.1 43.808C108.228 43.808 104.916 47.12 104.916 52.976C104.916 58.832 108.228 62.336 113.1 62.336ZM113.1 58.64C110.748 58.64 109.308 56.432 109.308 52.976C109.308 49.52 110.748 47.48 113.1 47.48C115.452 47.48 116.916 49.52 116.916 52.976C116.916 56.432 115.452 58.64 113.1 58.64ZM124.599 62H129.975C135.183 62 138.783 59.192 138.783 52.976C138.783 46.76 135.183 44.12 129.735 44.12H124.599V62ZM128.895 58.544V47.552H129.471C132.351 47.552 134.391 48.728 134.391 52.976C134.391 57.224 132.351 58.544 129.471 58.544H128.895ZM149.452 62.336C154.324 62.336 157.636 58.832 157.636 52.976C157.636 47.144 154.324 43.808 149.452 43.808C144.58 43.808 141.268 47.12 141.268 52.976C141.268 58.832 144.58 62.336 149.452 62.336ZM149.452 58.64C147.1 58.64 145.66 56.432 145.66 52.976C145.66 49.52 147.1 47.48 149.452 47.48C151.804 47.48 153.268 49.52 153.268 52.976C153.268 56.432 151.804 58.64 149.452 58.64ZM182.119 45.752L179.815 43.616C179.311 43.76 177.727 43.856 176.935 43.856H164.479C163.423 43.856 162.415 43.736 161.431 43.592V47.6C162.679 47.48 163.423 47.408 164.479 47.408H176.335C175.807 48.416 174.151 50.24 172.375 51.368L175.375 53.768C177.535 52.208 179.815 49.208 181.039 47.192C181.279 46.808 181.831 46.112 182.119 45.752ZM172.231 49.016H168.007C168.151 49.88 168.199 50.576 168.199 51.416C168.199 55.328 167.599 57.368 164.935 59.384C163.927 60.152 163.039 60.56 162.199 60.848L165.583 63.608C172.351 59.84 172.231 54.656 172.231 49.016ZM202.159 44.192C202.159 43.496 202.735 42.92 203.431 42.92C204.127 42.92 204.703 43.496 204.703 44.192C204.703 44.888 204.127 45.464 203.431 45.464C202.735 45.464 202.159 44.888 202.159 44.192ZM200.455 44.192C200.455 44.312 200.455 44.408 200.479 44.504C199.831 44.6 199.159 44.624 198.751 44.624H188.167C187.375 44.624 185.791 44.504 185.047 44.408V48.512C185.671 48.464 186.991 48.392 188.167 48.392H198.727C198.415 50.312 197.623 52.688 196.087 54.584C194.191 56.936 191.479 59.048 186.655 60.128L189.823 63.608C194.047 62.24 197.431 59.768 199.591 56.864C201.655 54.08 202.639 50.432 203.215 48.176C203.287 47.888 203.383 47.528 203.503 47.168C205.063 47.168 206.407 45.824 206.407 44.192C206.407 42.56 205.063 41.216 203.431 41.216C201.799 41.216 200.455 42.56 200.455 44.192ZM226.519 43.136H222.127C222.223 43.856 222.295 44.672 222.295 45.728V50.696C222.295 54.008 221.959 55.712 220.351 57.416C218.911 58.904 217.039 59.792 214.543 60.344L217.591 63.56C219.343 63.008 221.863 61.784 223.471 60.104C225.295 58.184 226.423 55.784 226.423 50.96V45.728C226.423 44.672 226.471 43.856 226.519 43.136ZM215.407 43.352H211.207C211.279 43.952 211.303 44.792 211.303 45.248V53.384C211.303 54.128 211.207 55.16 211.183 55.64H215.407C215.359 55.016 215.311 54.008 215.311 53.408V45.248C215.311 44.384 215.359 43.952 215.407 43.352Z" fill="black"/>
<path d="M314.98 134.974H313.09V134.236H314.98V134.974ZM314.98 137.818H313.09V137.062H314.98V137.818ZM314.98 140.716H313.09V139.906H314.98V140.716ZM310.57 142.894H321.118V140.716H317.464V139.906H320.218V137.818H317.464V137.062H320.308V134.974H317.464V134.236H320.794V132.058H318.004C318.292 131.518 318.58 130.924 318.868 130.348L315.97 129.844C315.826 130.51 315.592 131.32 315.322 132.058H313.774C314.044 131.518 314.296 130.978 314.53 130.438L311.92 129.682C311.128 131.77 309.652 133.786 308.032 135.01C308.59 135.496 309.544 136.558 309.94 137.098C310.156 136.918 310.354 136.72 310.57 136.504V142.894ZM309.418 132.886C308.842 132.04 307.6 130.87 306.61 130.078L304.612 131.554C305.584 132.436 306.772 133.678 307.258 134.542L309.418 132.886ZM308.986 136.576H304.612V138.988H306.484V142.516C305.782 143.038 305.044 143.542 304.378 143.938L305.584 146.548C306.502 145.774 307.204 145.144 307.888 144.478C308.95 145.846 310.3 146.314 312.334 146.404C314.638 146.512 318.472 146.476 320.83 146.35C320.956 145.612 321.352 144.406 321.64 143.812C318.958 144.046 314.62 144.1 312.37 143.992C310.678 143.92 309.58 143.452 308.986 142.336V136.576ZM334.96 137.044H339.334V134.794H334.978V133.588H338.416V131.464H334.978V129.628H332.566V134.794H331.612V131.374H329.362V134.794H328.138V132.904H326.698V129.628H324.304V132.904H322.612V135.298H324.304V138.07C323.566 138.232 322.882 138.394 322.306 138.502L322.846 141.004L324.304 140.608V144.028C324.304 144.262 324.232 144.316 324.016 144.316C323.8 144.334 323.206 144.334 322.63 144.298C322.936 145 323.224 146.08 323.278 146.728C324.466 146.728 325.294 146.638 325.906 146.224C326.518 145.828 326.698 145.162 326.698 144.028V139.96C327.238 139.816 327.76 139.672 328.282 139.51L327.958 137.17L326.698 137.494V135.298H328.066V137.044H332.548V140.284C332.548 140.446 332.494 140.5 332.314 140.5C332.134 140.5 331.504 140.5 331.036 140.482C331.306 141.166 331.504 142.066 331.54 142.75C332.368 142.75 333.052 142.75 333.628 142.588C332.296 143.614 330.478 144.208 328.12 144.55C328.606 145.108 329.146 146.044 329.362 146.764C334.708 145.612 337.498 143.596 338.794 138.502L336.418 137.962C336.058 139.348 335.572 140.464 334.888 141.346C334.942 141.058 334.96 140.734 334.96 140.338V137.044ZM329.65 137.674C329.29 138.916 328.552 140.104 327.58 140.842C328.102 141.184 329.02 141.886 329.434 142.3C330.496 141.346 331.432 139.798 331.936 138.178L329.65 137.674ZM349.162 138.25C349.414 138.016 349.666 137.764 349.918 137.53C350.062 137.728 350.206 137.962 350.332 138.196L349.162 138.25ZM350.296 140.284H347.992C349.036 140.194 350.134 140.104 351.232 140.014C351.358 140.32 351.448 140.608 351.52 140.86L353.482 139.996C353.41 139.744 353.302 139.474 353.176 139.186C354.058 139.744 354.922 140.356 355.408 140.824L357.298 139.276C356.47 138.592 354.85 137.638 353.698 137.044L352.528 137.962C352.276 137.512 351.97 137.08 351.7 136.684L350.098 137.35C350.854 136.594 351.592 135.82 352.258 135.064L350.242 134.164C349.828 134.758 349.288 135.442 348.712 136.108C348.514 135.964 348.316 135.802 348.082 135.658C348.586 135.064 349.144 134.362 349.684 133.678L349.378 133.57H356.614V131.212H350.296V129.628H347.596V131.212H341.458V133.57H347.164C346.966 133.93 346.768 134.29 346.534 134.65L346.156 134.416L345.328 135.442C344.662 134.902 343.6 134.218 342.79 133.786L341.062 135.172C341.98 135.73 343.168 136.594 343.708 137.17L345.112 136C345.814 136.468 346.66 137.08 347.326 137.602C347.056 137.872 346.804 138.124 346.552 138.358L345.436 138.394L345.13 137.134C343.456 137.746 341.71 138.376 340.558 138.718L341.782 140.824C342.754 140.392 343.906 139.87 345.004 139.33L345.202 140.5L347.596 140.32V141.31H340.828V143.722H347.596V146.692H350.296V143.722H357.208V141.31H350.296V140.284ZM354.274 136.936C355.03 136.396 356.02 135.586 356.938 134.74L354.58 133.642C354.04 134.38 353.104 135.334 352.366 135.946L354.274 136.936ZM367.018 130.438L364.138 130.204C364.102 130.816 363.994 131.5 363.832 132.166H363.13C362.158 132.166 360.79 132.094 359.89 131.95V134.47C360.844 134.56 362.158 134.596 362.896 134.596C362.014 136.252 360.736 137.728 359.044 139.24L361.366 140.986C361.978 140.158 362.5 139.51 363.04 138.952C363.652 138.34 364.768 137.746 365.686 137.746C366.028 137.746 366.406 137.836 366.676 138.124C364.678 139.168 362.536 140.662 362.536 143.02C362.536 145.414 364.66 146.188 367.612 146.188C369.394 146.188 371.716 146.026 372.814 145.864L372.904 143.056C371.32 143.398 369.268 143.614 367.666 143.614C365.974 143.614 365.416 143.308 365.416 142.552C365.416 141.832 365.902 141.238 367.036 140.572C367.018 141.256 366.982 141.922 366.946 142.39H369.538C369.52 141.58 369.484 140.374 369.466 139.384C370.42 138.97 371.302 138.628 371.986 138.358C372.67 138.088 373.804 137.674 374.434 137.494L373.372 134.974C372.598 135.352 371.86 135.694 371.068 136.036C370.438 136.324 369.844 136.558 369.124 136.9C368.656 136.072 367.792 135.64 366.73 135.64C366.226 135.64 365.308 135.712 364.948 135.82C365.182 135.46 365.416 135.01 365.65 134.542C367.558 134.47 369.772 134.308 371.446 134.092L371.464 131.572C369.952 131.842 368.242 131.986 366.622 132.076C366.82 131.392 366.946 130.834 367.018 130.438ZM383.308 130.132H377.458V132.076H383.308V130.132ZM383.992 132.598H376.45V134.632H383.992V132.598ZM380.932 142.228V143.758H379.528V142.228H380.932ZM383.218 140.194H377.278V146.44H379.528V145.792H383.218V140.194ZM377.35 139.6H383.272V137.656H377.35V139.6ZM377.35 137.116H383.272V135.172H377.35V137.116ZM393.694 135.604H390.094V129.7H387.43V135.604H383.884V138.196H387.43V146.71H390.094V138.196H393.694V135.604ZM401.542 141.796V140.986H404.89V141.796H401.542ZM397.924 132.724C398.158 133.102 398.392 133.516 398.536 133.876H396.844C397.186 133.534 397.528 133.138 397.852 132.724H397.924ZM404.512 133.876C404.836 133.534 405.16 133.156 405.484 132.724H406.15C406.456 133.102 406.78 133.516 406.996 133.876H404.512ZM399.652 133.876L400.948 133.426C400.858 133.228 400.732 132.976 400.588 132.724H402.226C402.118 132.814 402.01 132.904 401.902 132.976C402.388 133.174 403.144 133.534 403.72 133.876H399.652ZM406.816 135.802H399.472V135.388H406.816V135.802ZM406.816 137.638H399.472V137.206H406.816V137.638ZM399.472 139.492V139.06H406.816V139.492H399.472ZM411.244 141.796H407.608V140.986H409.588V133.876H408.112L409.444 133.3C409.336 133.12 409.192 132.922 409.03 132.724H411.226V130.69H406.726C406.834 130.474 406.924 130.258 407.014 130.042L404.53 129.43C404.152 130.42 403.504 131.446 402.73 132.238V130.69H399.184C399.292 130.492 399.4 130.312 399.49 130.114L397.06 129.43C396.466 130.762 395.368 132.13 394.216 132.958C394.81 133.282 395.836 133.966 396.322 134.38C396.484 134.236 396.664 134.074 396.826 133.894V140.986H398.914V141.796H394.792V143.848H397.996C397.402 144.226 396.466 144.568 394.99 144.802C395.566 145.288 396.286 146.152 396.628 146.71C399.436 146.044 400.768 145.036 401.272 143.848H404.89V146.674H407.608V143.848H411.244V141.796Z" fill="black"/>
<path d="M923.48 97.974H921.59V97.236H923.48V97.974ZM923.48 100.818H921.59V100.062H923.48V100.818ZM923.48 103.716H921.59V102.906H923.48V103.716ZM919.07 105.894H929.618V103.716H925.964V102.906H928.718V100.818H925.964V100.062H928.808V97.974H925.964V97.236H929.294V95.058H926.504C926.792 94.518 927.08 93.924 927.368 93.348L924.47 92.844C924.326 93.51 924.092 94.32 923.822 95.058H922.274C922.544 94.518 922.796 93.978 923.03 93.438L920.42 92.682C919.628 94.77 918.152 96.786 916.532 98.01C917.09 98.496 918.044 99.558 918.44 100.098C918.656 99.918 918.854 99.72 919.07 99.504V105.894ZM917.918 95.886C917.342 95.04 916.1 93.87 915.11 93.078L913.112 94.554C914.084 95.436 915.272 96.678 915.758 97.542L917.918 95.886ZM917.486 99.576H913.112V101.988H914.984V105.516C914.282 106.038 913.544 106.542 912.878 106.938L914.084 109.548C915.002 108.774 915.704 108.144 916.388 107.478C917.45 108.846 918.8 109.314 920.834 109.404C923.138 109.512 926.972 109.476 929.33 109.35C929.456 108.612 929.852 107.406 930.14 106.812C927.458 107.046 923.12 107.1 920.87 106.992C919.178 106.92 918.08 106.452 917.486 105.336V99.576ZM943.46 100.044H947.834V97.794H943.478V96.588H946.916V94.464H943.478V92.628H941.066V97.794H940.112V94.374H937.862V97.794H936.638V95.904H935.198V92.628H932.804V95.904H931.112V98.298H932.804V101.07C932.066 101.232 931.382 101.394 930.806 101.502L931.346 104.004L932.804 103.608V107.028C932.804 107.262 932.732 107.316 932.516 107.316C932.3 107.334 931.706 107.334 931.13 107.298C931.436 108 931.724 109.08 931.778 109.728C932.966 109.728 933.794 109.638 934.406 109.224C935.018 108.828 935.198 108.162 935.198 107.028V102.96C935.738 102.816 936.26 102.672 936.782 102.51L936.458 100.17L935.198 100.494V98.298H936.566V100.044H941.048V103.284C941.048 103.446 940.994 103.5 940.814 103.5C940.634 103.5 940.004 103.5 939.536 103.482C939.806 104.166 940.004 105.066 940.04 105.75C940.868 105.75 941.552 105.75 942.128 105.588C940.796 106.614 938.978 107.208 936.62 107.55C937.106 108.108 937.646 109.044 937.862 109.764C943.208 108.612 945.998 106.596 947.294 101.502L944.918 100.962C944.558 102.348 944.072 103.464 943.388 104.346C943.442 104.058 943.46 103.734 943.46 103.338V100.044ZM938.15 100.674C937.79 101.916 937.052 103.104 936.08 103.842C936.602 104.184 937.52 104.886 937.934 105.3C938.996 104.346 939.932 102.798 940.436 101.178L938.15 100.674ZM957.662 101.25C957.914 101.016 958.166 100.764 958.418 100.53C958.562 100.728 958.706 100.962 958.832 101.196L957.662 101.25ZM958.796 103.284H956.492C957.536 103.194 958.634 103.104 959.732 103.014C959.858 103.32 959.948 103.608 960.02 103.86L961.982 102.996C961.91 102.744 961.802 102.474 961.676 102.186C962.558 102.744 963.422 103.356 963.908 103.824L965.798 102.276C964.97 101.592 963.35 100.638 962.198 100.044L961.028 100.962C960.776 100.512 960.47 100.08 960.2 99.684L958.598 100.35C959.354 99.594 960.092 98.82 960.758 98.064L958.742 97.164C958.328 97.758 957.788 98.442 957.212 99.108C957.014 98.964 956.816 98.802 956.582 98.658C957.086 98.064 957.644 97.362 958.184 96.678L957.878 96.57H965.114V94.212H958.796V92.628H956.096V94.212H949.958V96.57H955.664C955.466 96.93 955.268 97.29 955.034 97.65L954.656 97.416L953.828 98.442C953.162 97.902 952.1 97.218 951.29 96.786L949.562 98.172C950.48 98.73 951.668 99.594 952.208 100.17L953.612 99C954.314 99.468 955.16 100.08 955.826 100.602C955.556 100.872 955.304 101.124 955.052 101.358L953.936 101.394L953.63 100.134C951.956 100.746 950.21 101.376 949.058 101.718L950.282 103.824C951.254 103.392 952.406 102.87 953.504 102.33L953.702 103.5L956.096 103.32V104.31H949.328V106.722H956.096V109.692H958.796V106.722H965.708V104.31H958.796V103.284ZM962.774 99.936C963.53 99.396 964.52 98.586 965.438 97.74L963.08 96.642C962.54 97.38 961.604 98.334 960.866 98.946L962.774 99.936ZM974.474 95.166L974.492 97.956C976.904 98.172 980.054 98.154 982.412 97.956V95.148C980.396 95.364 976.832 95.454 974.474 95.166ZM976.328 103.05L973.844 102.834C973.628 103.77 973.52 104.526 973.52 105.3C973.52 107.226 975.086 108.396 978.236 108.396C980.36 108.396 981.782 108.27 982.97 108.054L982.916 105.102C981.278 105.444 979.982 105.588 978.38 105.588C976.904 105.588 976.148 105.282 976.148 104.49C976.148 104.022 976.202 103.626 976.328 103.05ZM972.08 94.068L969.038 93.816C969.02 94.5 968.894 95.31 968.822 95.85C968.642 97.182 968.12 100.188 968.12 102.942C968.12 105.39 968.48 107.658 968.84 108.864L971.36 108.702C971.342 108.414 971.342 108.09 971.342 107.892C971.342 107.73 971.396 107.298 971.45 107.028C971.648 106.02 972.206 104.04 972.746 102.402L971.432 101.358C971.198 101.88 970.982 102.24 970.73 102.744C970.712 102.672 970.712 102.384 970.712 102.33C970.712 100.656 971.378 96.84 971.576 95.904C971.648 95.58 971.918 94.482 972.08 94.068ZM989.018 97.074H993.77L992.312 98.514C993.806 99.27 995.768 100.494 996.65 101.34L998.54 99.396C997.658 98.658 996.02 97.74 994.67 97.074H1001.8V94.59H995.462V92.61H992.726V94.59H986.39V99.072C986.39 101.718 986.282 105.588 984.77 108.18C985.382 108.45 986.552 109.224 987.038 109.656C988.712 106.776 989.018 102.078 989.018 99.072V97.074ZM990.818 108.234C991.574 106.758 991.844 104.382 992.006 102.24L989.648 101.736C989.504 103.806 989.18 105.822 988.496 107.208L990.818 108.234ZM1002.3 107.154C1002.03 105.48 1001.02 103.086 1000.02 101.196L997.676 102.096C998.162 103.068 998.63 104.202 998.99 105.264C998.324 105.066 997.352 104.67 996.866 104.274C996.794 106.65 996.704 107.064 996.272 107.064H995.336C994.94 107.064 994.868 106.992 994.868 106.308V100.44H992.276V106.326C992.276 108.612 992.78 109.386 994.886 109.386H996.524C998.234 109.386 998.882 108.54 999.116 105.678C999.422 106.614 999.638 107.496 999.728 108.198L1002.3 107.154ZM1013.64 95.112L1011.77 95.886C1012.47 96.876 1012.83 97.596 1013.41 98.838L1015.33 98.01C1014.94 97.2 1014.18 95.922 1013.64 95.112ZM1016.11 94.086L1014.25 94.932C1014.96 95.886 1015.35 96.552 1015.98 97.794L1017.85 96.894C1017.46 96.102 1016.67 94.86 1016.11 94.086ZM1009.2 93.672L1005.69 93.636C1005.87 94.446 1005.96 95.436 1005.96 96.408C1005.96 97.758 1005.79 102.582 1005.79 104.85C1005.79 108 1007.76 109.422 1010.91 109.422C1015.1 109.422 1017.76 106.938 1018.9 105.21L1016.92 102.78C1015.6 104.796 1013.71 106.434 1010.92 106.434C1009.7 106.434 1008.69 105.894 1008.69 104.166C1008.69 102.186 1008.84 98.298 1008.93 96.408C1008.96 95.616 1009.07 94.536 1009.2 93.672ZM1021.65 95.382L1021.92 98.352C1024.08 97.866 1027.25 97.506 1028.8 97.344C1027.83 98.226 1026.51 100.134 1026.51 102.6C1026.51 106.434 1029.95 108.612 1033.96 108.918L1034.99 105.894C1031.88 105.714 1029.39 104.67 1029.39 102.024C1029.39 99.882 1031.07 97.776 1033.01 97.344C1034 97.146 1035.53 97.146 1036.47 97.128L1036.45 94.32C1035.13 94.374 1033.01 94.5 1031.21 94.644C1027.92 94.932 1025.2 95.148 1023.51 95.292C1023.16 95.328 1022.37 95.364 1021.65 95.382ZM919.142 119.078L915.956 119.798C916.172 120.176 916.352 120.626 916.604 121.508C916.748 121.958 916.91 122.57 917.108 123.29C916.262 123.434 915.632 123.542 915.362 123.596C914.624 123.704 913.94 123.776 913.202 123.848L913.958 126.782C914.624 126.62 916.118 126.296 917.81 125.936C918.602 128.888 919.448 132.182 919.79 133.352C919.988 134.036 920.132 134.828 920.24 135.368L923.48 134.612C923.3 134.144 922.976 133.154 922.85 132.758C922.472 131.48 921.59 128.258 920.78 125.306C922.94 124.874 924.866 124.478 925.424 124.388C924.902 125.288 923.624 127.016 922.346 128.096L925.154 129.41C926.648 127.664 928.826 124.424 929.654 122.552L927.656 121.094C927.332 121.238 926.864 121.4 926.432 121.472C925.496 121.688 922.652 122.246 920.06 122.732C919.862 121.994 919.664 121.328 919.52 120.806C919.34 120.212 919.232 119.582 919.142 119.078ZM934.982 120.032L932.912 122.246C934.208 123.164 936.476 125.144 937.43 126.188L939.662 123.902C938.582 122.75 936.224 120.878 934.982 120.032ZM932.318 131.984L934.172 134.864C936.44 134.504 938.78 133.568 940.616 132.488C943.622 130.724 946.178 128.222 947.618 125.666L945.926 122.588C944.72 125.126 942.29 127.916 939.05 129.788C937.286 130.814 934.964 131.624 932.318 131.984ZM949.67 124.82V127.664C950.174 127.628 950.966 127.592 951.488 127.592H956.186C956.078 128.996 955.736 130.238 955.034 131.282C954.314 132.29 953.054 133.316 951.848 133.766L954.404 135.602C956.042 134.774 957.446 133.316 958.058 132.038C958.67 130.814 959.12 129.392 959.246 127.592H963.278C963.818 127.592 964.574 127.61 965.06 127.646V124.82C964.556 124.91 963.656 124.946 963.278 124.946H951.488C950.93 124.946 950.228 124.892 949.67 124.82ZM962.756 119.06L961.064 119.744C961.154 119.888 961.262 120.05 961.352 120.212C960.758 120.284 960.11 120.32 959.516 120.32H953.81C953.198 120.32 952.334 120.266 951.722 120.176V122.966C952.316 122.93 953.18 122.894 953.81 122.894H959.516C960.2 122.894 960.938 122.93 961.604 122.966V120.626C961.91 121.184 962.216 121.778 962.45 122.246L964.16 121.526C963.836 120.896 963.206 119.726 962.756 119.06ZM964.97 118.196L963.278 118.88C963.764 119.564 964.34 120.626 964.7 121.364L966.392 120.644C966.086 120.032 965.438 118.88 964.97 118.196ZM969.74 133.208L971.81 135.008C972.314 134.666 972.782 134.522 973.052 134.432C977.156 132.992 980.918 130.886 983.456 127.916L981.908 125.432C979.568 128.204 975.644 130.472 972.998 131.282V122.408C972.998 121.616 973.07 120.968 973.196 120.14H969.776C969.902 120.734 970.01 121.616 970.01 122.408V131.876C970.01 132.326 969.992 132.668 969.74 133.208ZM992.942 119.51L989.864 119.384C989.9 120.032 989.882 120.518 989.774 121.382C989.756 121.526 989.738 121.688 989.702 121.868C988.64 121.832 987.38 121.688 986.282 121.508V124.208C987.128 124.298 988.118 124.334 989.198 124.37C988.73 126.314 988.01 128.6 987.182 130.22L989.756 131.12C989.918 130.814 990.044 130.598 990.224 130.364C991.232 129.032 992.978 128.276 995.012 128.276C996.578 128.276 997.406 129.104 997.406 130.022C997.406 132.506 993.464 132.848 989.63 132.182L990.404 135.008C996.434 135.656 1000.38 134.144 1000.38 129.95C1000.38 127.52 998.288 125.936 995.354 125.936C993.896 125.936 992.618 126.188 991.214 126.818C991.43 126.044 991.646 125.18 991.844 124.316C994.31 124.19 997.19 123.83 998.918 123.56L998.864 120.968C996.704 121.418 994.382 121.688 992.402 121.796L992.456 121.526C992.618 120.878 992.726 120.23 992.942 119.51ZM1003.99 127.574L1005.2 130.184C1005.63 129.986 1006.62 129.464 1007.79 128.888C1007.92 129.194 1008.03 129.464 1008.13 129.734C1008.75 131.282 1009.66 133.856 1010.1 135.728L1012.83 135.08C1012.33 133.46 1011.19 130.13 1010.56 128.672C1010.46 128.402 1010.33 128.114 1010.19 127.79C1011.68 127.142 1013.14 126.638 1014.07 126.638C1014.92 126.638 1015.46 127.07 1015.46 127.592C1015.46 128.51 1014.83 128.978 1013.86 128.978C1013.35 128.978 1012.56 128.816 1011.86 128.51L1011.81 131.012C1012.33 131.21 1013.32 131.462 1014.07 131.462C1016.88 131.462 1018.18 130.004 1018.18 127.574C1018.18 125.972 1016.94 124.208 1014.18 124.208C1013.46 124.208 1012.6 124.406 1011.66 124.694L1013.28 123.542C1012.89 123.092 1011.82 122.156 1011.28 121.814L1009.36 123.218C1009.97 123.65 1010.69 124.298 1011.23 124.856C1010.58 125.072 1009.9 125.342 1009.2 125.63C1008.98 125.162 1008.76 124.748 1008.6 124.442C1008.48 124.172 1008.21 123.632 1008.01 123.272L1005.31 124.298C1005.69 124.748 1006.03 125.306 1006.24 125.684C1006.41 125.954 1006.57 126.278 1006.75 126.638C1006.42 126.782 1006.1 126.908 1005.78 127.034C1005.54 127.124 1004.75 127.376 1003.99 127.574ZM1031.19 120.626L1028.1 119.384C1027.72 120.266 1027.32 120.95 1027.09 121.454C1026.13 123.164 1022.59 130.49 1021.26 134.072L1024.35 135.116C1024.64 134.126 1025.18 132.182 1025.61 131.138C1026.22 129.662 1027.05 128.528 1028.15 128.528C1028.71 128.528 1029 128.852 1029.05 129.392C1029.1 129.986 1029.1 131.498 1029.18 132.416C1029.27 133.856 1030.36 135.044 1032.4 135.044C1035.26 135.044 1037.01 132.974 1037.94 129.77L1035.57 127.844C1035.03 130.256 1034.18 132.02 1032.87 132.02C1032.38 132.02 1031.95 131.804 1031.88 131.21C1031.77 130.526 1031.82 129.05 1031.79 128.402C1031.7 126.854 1030.92 125.954 1029.48 125.954C1028.91 125.954 1028.33 126.026 1027.77 126.188C1028.64 124.676 1029.68 122.768 1030.62 121.454C1030.81 121.184 1030.99 120.878 1031.19 120.626ZM921.444 145.852L918.204 145.51C918.24 146.626 918.114 147.868 917.862 149.272C917.052 149.326 916.314 149.38 915.792 149.398C915.072 149.416 914.388 149.452 913.686 149.398L913.938 152.332C914.532 152.224 915.576 152.08 916.152 151.99C916.404 151.954 916.8 151.9 917.268 151.828C916.602 154.294 915.432 157.714 913.722 160.018L916.566 161.152C918.096 158.686 919.446 154.33 920.166 151.522C920.526 151.486 920.814 151.468 921.03 151.468C922.146 151.468 922.686 151.63 922.686 152.944C922.686 154.618 922.47 156.724 922.02 157.624C921.786 158.11 921.372 158.308 920.796 158.308C920.346 158.308 919.266 158.11 918.6 157.93L919.068 160.792C919.716 160.936 920.562 161.044 921.264 161.044C922.722 161.044 923.784 160.594 924.396 159.298C925.17 157.714 925.404 154.762 925.404 152.656C925.404 149.956 924.036 148.984 921.966 148.984C921.642 148.984 921.228 149.002 920.742 149.038C920.85 148.57 920.958 148.066 921.066 147.58C921.174 147.076 921.318 146.392 921.444 145.852ZM929.238 144.214L927.546 144.898C928.032 145.582 928.608 146.644 928.968 147.382L930.66 146.662C930.354 146.05 929.706 144.898 929.238 144.214ZM927.024 145.078L925.332 145.762C925.764 146.374 926.214 147.256 926.556 147.958L925.026 148.606C926.322 150.262 927.528 153.448 927.96 155.536L930.75 154.258C930.264 152.602 928.914 149.488 927.834 147.796L928.428 147.544C928.104 146.914 927.474 145.744 927.024 145.078ZM948.372 147.814L946.644 146.212C946.266 146.32 945.078 146.392 944.484 146.392H935.142C934.35 146.392 933.594 146.302 932.856 146.194V149.2C933.792 149.11 934.35 149.056 935.142 149.056H944.034C943.638 149.812 942.396 151.18 941.064 152.026L943.314 153.826C944.934 152.656 946.644 150.406 947.562 148.894C947.742 148.606 948.156 148.084 948.372 147.814ZM940.956 150.262H937.788C937.896 150.91 937.932 151.432 937.932 152.062C937.932 154.996 937.482 156.526 935.484 158.038C934.728 158.614 934.062 158.92 933.432 159.136L935.97 161.206C941.046 158.38 940.956 154.492 940.956 150.262ZM958.744 145.924L955.558 144.88C955.36 145.582 954.928 146.518 954.604 147.022C953.65 148.534 952.192 150.694 949.006 152.656L951.454 154.474C953.11 153.322 954.712 151.774 955.99 150.172H960.472C960.238 151.342 959.23 153.412 958.096 154.672C956.566 156.382 954.694 157.912 950.806 159.1L953.398 161.404C956.782 160.018 958.96 158.362 960.706 156.22C962.362 154.186 963.334 151.81 963.82 150.316C964 149.776 964.288 149.236 964.522 148.84L962.308 147.472C961.84 147.616 961.12 147.706 960.526 147.706H957.628C957.898 147.238 958.33 146.5 958.744 145.924ZM971.686 145.51L970.102 147.922C971.362 148.624 973.198 149.794 974.278 150.514L975.898 148.102C974.872 147.4 972.946 146.194 971.686 145.51ZM967.996 158.236L969.634 161.116C971.182 160.864 973.828 159.928 975.664 158.902C978.652 157.192 981.226 154.942 982.954 152.404L981.28 149.416C979.858 152.008 977.266 154.546 974.17 156.256C972.136 157.354 970.03 157.894 967.996 158.236ZM968.878 149.65L967.294 152.062C968.572 152.746 970.39 153.934 971.488 154.69L973.09 152.242C972.082 151.54 970.174 150.334 968.878 149.65ZM987.778 149.668V152.278C988.282 152.242 989.452 152.206 990.226 152.206H995.77V153.916H990.46C989.74 153.916 988.822 153.898 988.282 153.862V156.418C988.75 156.382 989.74 156.382 990.46 156.382H995.77V158.308H989.2C988.534 158.308 987.904 158.272 987.598 158.236V160.882C987.904 160.864 988.696 160.828 989.182 160.828H995.77C995.77 161.098 995.752 161.368 995.752 161.53H998.488C998.488 161.188 998.47 160.45 998.47 160.162V151.108C998.47 150.712 998.47 149.992 998.488 149.722C998.182 149.74 997.39 149.758 996.958 149.758H990.226C989.452 149.758 988.318 149.722 987.778 149.668ZM1006.53 146.032L1004.46 148.246C1005.76 149.164 1008.03 151.144 1008.98 152.188L1011.21 149.902C1010.13 148.75 1007.78 146.878 1006.53 146.032ZM1003.87 157.984L1005.72 160.864C1007.99 160.504 1010.33 159.568 1012.17 158.488C1015.17 156.724 1017.73 154.222 1019.17 151.666L1017.48 148.588C1016.27 151.126 1013.84 153.916 1010.6 155.788C1008.84 156.814 1006.52 157.624 1003.87 157.984ZM1027.94 155.212H1030.17L1030.71 149.524L1030.82 146.536H1027.29L1027.4 149.524L1027.94 155.212ZM1029.05 160.216C1030.11 160.216 1030.89 159.442 1030.89 158.38C1030.89 157.318 1030.11 156.58 1029.05 156.58C1027.99 156.58 1027.22 157.318 1027.22 158.38C1027.22 159.442 1027.97 160.216 1029.05 160.216Z" fill="black"/>
<path d="M490.243 200.243C492.586 197.899 492.586 194.101 490.243 191.757L452.059 153.574C449.716 151.23 445.917 151.23 443.574 153.574C441.23 155.917 441.23 159.716 443.574 162.059L477.515 196L443.574 229.941C441.23 232.284 441.23 236.083 443.574 238.426C445.917 240.77 449.716 240.77 452.059 238.426L490.243 200.243ZM304 202H486V190H304V202Z" fill="#202020"/>
<path d="M490.243 200.243C492.586 197.899 492.586 194.101 490.243 191.757L452.059 153.574C449.716 151.23 445.917 151.23 443.574 153.574C441.23 155.917 441.23 159.716 443.574 162.059L477.515 196L443.574 229.941C441.23 232.284 441.23 236.083 443.574 238.426C445.917 240.77 449.716 240.77 452.059 238.426L490.243 200.243ZM304 202H486V190H304V202Z" fill="black" fill-opacity="0.2"/>
<path d="M1100.24 192.243C1102.59 189.899 1102.59 186.101 1100.24 183.757L1062.06 145.574C1059.72 143.23 1055.92 143.23 1053.57 145.574C1051.23 147.917 1051.23 151.716 1053.57 154.059L1087.51 188L1053.57 221.941C1051.23 224.284 1051.23 228.083 1053.57 230.426C1055.92 232.77 1059.72 232.77 1062.06 230.426L1100.24 192.243ZM914 194H1096V182H914V194Z" fill="#202020"/>
<path d="M1100.24 192.243C1102.59 189.899 1102.59 186.101 1100.24 183.757L1062.06 145.574C1059.72 143.23 1055.92 143.23 1053.57 145.574C1051.23 147.917 1051.23 151.716 1053.57 154.059L1087.51 188L1053.57 221.941C1051.23 224.284 1051.23 228.083 1053.57 230.426C1055.92 232.77 1059.72 232.77 1062.06 230.426L1100.24 192.243ZM914 194H1096V182H914V194Z" fill="black" fill-opacity="0.2"/>
<path d="M1322.83 85.0833H1162.17C1156.84 85.0833 1151.73 87.1992 1147.97 90.9655C1144.2 94.7319 1142.08 99.8402 1142.08 105.167V285.917L1182.25 245.75H1322.83C1328.16 245.75 1333.27 243.634 1337.03 239.868C1340.8 236.101 1342.92 230.993 1342.92 225.667V105.167C1342.92 99.8402 1340.8 94.7319 1337.03 90.9655C1333.27 87.1992 1328.16 85.0833 1322.83 85.0833Z" fill="#FF835C"/>
<path d="M1191 127.808C1186.39 127.808 1182.65 131.552 1182.65 136.16C1182.65 140.768 1186.39 144.512 1191 144.512C1195.61 144.512 1199.35 140.768 1199.35 136.16C1199.35 131.552 1195.61 127.808 1191 127.808ZM1191 130.508C1194.11 130.508 1196.65 133.046 1196.65 136.16C1196.65 139.274 1194.11 141.812 1191 141.812C1187.89 141.812 1185.35 139.274 1185.35 136.16C1185.35 133.046 1187.89 130.508 1191 130.508ZM1209 127.808C1204.39 127.808 1200.65 131.552 1200.65 136.16C1200.65 140.768 1204.39 144.512 1209 144.512C1213.61 144.512 1217.35 140.768 1217.35 136.16C1217.35 131.552 1213.61 127.808 1209 127.808ZM1209 130.508C1212.11 130.508 1214.65 133.046 1214.65 136.16C1214.65 139.274 1212.11 141.812 1209 141.812C1205.89 141.812 1203.35 139.274 1203.35 136.16C1203.35 133.046 1205.89 130.508 1209 130.508ZM1234.88 136.646C1234.88 132.56 1231.99 129.392 1227.4 129.392C1222.59 129.392 1218.9 133.028 1218.9 137.312C1218.9 140.39 1220.59 142.802 1222.82 142.802C1224.95 142.802 1226.57 140.39 1227.63 136.79C1228.13 135.116 1228.46 133.55 1228.69 132.092C1230.76 132.578 1231.9 134.234 1231.9 136.556C1231.9 138.932 1230.37 140.534 1228.08 141.092C1227.56 141.218 1227.07 141.326 1226.32 141.416L1227.97 144.008C1232.65 143.216 1234.88 140.444 1234.88 136.646ZM1221.73 137.024C1221.73 135.314 1223.06 132.884 1225.72 132.164C1225.51 133.568 1225.2 134.99 1224.8 136.214C1224.16 138.302 1223.62 139.4 1222.9 139.4C1222.27 139.4 1221.73 138.59 1221.73 137.024ZM1246.57 128.672L1243.42 127.7C1243.22 128.402 1242.79 129.338 1242.46 129.842C1241.51 131.354 1239.94 133.694 1236.76 135.656L1239.11 137.474C1240.81 136.304 1242.53 134.576 1243.85 132.866H1248.47C1248.24 133.802 1247.56 135.134 1246.76 136.286C1245.72 135.602 1244.68 134.954 1243.85 134.468L1241.9 136.466C1242.71 136.988 1243.78 137.726 1244.86 138.518C1243.47 139.886 1241.58 141.236 1238.48 142.208L1241.02 144.404C1243.69 143.378 1245.67 141.92 1247.21 140.318C1247.95 140.912 1248.6 141.47 1249.07 141.902L1251.16 139.418C1250.65 139.022 1249.95 138.5 1249.18 137.942C1250.42 136.178 1251.28 134.342 1251.75 133.01C1251.95 132.47 1252.22 131.93 1252.45 131.534L1250.26 130.166C1249.79 130.31 1249.07 130.4 1248.47 130.4H1245.49C1245.76 129.932 1246.17 129.23 1246.57 128.672ZM1269.35 130.706L1267.57 129.392C1267.16 129.536 1266.31 129.662 1265.41 129.662H1259.4C1258.88 129.662 1257.73 129.608 1257.1 129.518V132.614C1257.6 132.578 1258.59 132.47 1259.4 132.47H1265C1264.62 133.622 1263.65 135.206 1262.48 136.538C1260.88 138.32 1258.03 140.534 1255.12 141.596L1257.38 143.954C1259.74 142.82 1262.1 141.002 1263.99 139.04C1265.61 140.606 1267.14 142.334 1268.29 143.972L1270.79 141.794C1269.8 140.57 1267.64 138.284 1265.9 136.772C1267.07 135.152 1268.02 133.352 1268.62 132.02C1268.81 131.57 1269.19 130.94 1269.35 130.706ZM1282.69 128.924L1279.51 127.88C1279.31 128.582 1278.88 129.518 1278.55 130.022C1277.6 131.534 1276.14 133.694 1272.95 135.656L1275.4 137.474C1277.06 136.322 1278.66 134.774 1279.94 133.172H1284.42C1284.19 134.342 1283.18 136.412 1282.04 137.672C1280.51 139.382 1278.64 140.912 1274.75 142.1L1277.35 144.404C1280.73 143.018 1282.91 141.362 1284.65 139.22C1286.31 137.186 1287.28 134.81 1287.77 133.316C1287.95 132.776 1288.24 132.236 1288.47 131.84L1286.26 130.472C1285.79 130.616 1285.07 130.706 1284.47 130.706H1281.58C1281.85 130.238 1282.28 129.5 1282.69 128.924ZM1298.08 142.028C1300.39 142.712 1303.19 143.9 1304.78 144.908L1306.29 142.874C1304.6 141.974 1301.88 140.822 1299.58 140.21L1298.08 142.028ZM1300.03 138.932C1301.32 139.436 1302.91 140.354 1303.77 141.056L1305.25 139.238C1304.35 138.59 1302.78 137.762 1301.47 137.294L1300.03 138.932ZM1303.55 131.444C1303.19 132.002 1302.78 132.542 1302.31 133.028C1301.83 132.524 1301.41 132.002 1301.05 131.444H1303.55ZM1294.01 135.35C1294.27 135.026 1294.54 134.684 1294.81 134.324C1294.95 134.63 1295.09 134.972 1295.24 135.296L1294.01 135.35ZM1305.35 129.14L1304.94 129.23H1302.22C1302.42 128.834 1302.6 128.438 1302.78 128.042L1300.24 127.61C1299.58 129.338 1298.32 131.3 1296.34 132.776C1296.89 133.118 1297.72 133.946 1298.1 134.486C1298.62 134.054 1299.11 133.586 1299.54 133.118C1299.88 133.604 1300.22 134.072 1300.6 134.504C1299.68 135.17 1298.68 135.728 1297.61 136.16C1297.31 135.278 1296.86 134.288 1296.41 133.46L1295.02 134.036C1295.81 132.956 1296.61 131.804 1297.29 130.76L1295.18 129.806C1294.79 130.652 1294.27 131.606 1293.69 132.56C1293.58 132.416 1293.46 132.254 1293.33 132.11C1293.96 131.102 1294.68 129.716 1295.35 128.456L1293.1 127.628C1292.83 128.546 1292.38 129.68 1291.91 130.67L1291.58 130.364L1290.36 132.164C1291.06 132.848 1291.85 133.766 1292.38 134.558C1292.16 134.864 1291.94 135.152 1291.73 135.422L1290.36 135.476L1290.58 137.726L1293.08 137.564V138.716L1291.01 138.356C1290.9 139.85 1290.65 141.47 1290.18 142.514C1290.72 142.712 1291.69 143.162 1292.14 143.45C1292.56 142.46 1292.9 140.948 1293.08 139.454V144.71H1295.35V139.616C1295.63 140.516 1295.92 141.47 1296.07 142.154L1297.97 141.47C1297.76 140.57 1297.29 139.238 1296.88 138.194L1295.35 138.698V137.402L1295.94 137.366C1296.03 137.654 1296.08 137.924 1296.12 138.176L1297.72 137.456C1298.01 137.834 1298.26 138.23 1298.41 138.518C1299.77 137.96 1301.12 137.204 1302.33 136.232C1303.48 137.204 1304.8 137.996 1306.25 138.572C1306.61 137.924 1307.37 136.952 1307.91 136.448C1306.52 136.016 1305.23 135.368 1304.11 134.576C1305.3 133.298 1306.27 131.768 1306.96 130.04L1305.35 129.14ZM1186.7 156.004C1186.7 156.184 1186.68 156.634 1186.64 157.21C1185.96 157.3 1185.31 157.372 1184.83 157.408C1184.07 157.444 1183.62 157.444 1183.04 157.426L1183.31 160.198C1184.25 160.072 1185.53 159.91 1186.46 159.802C1186.45 160.126 1186.41 160.45 1186.39 160.774C1185.31 162.322 1183.62 164.482 1182.61 165.742L1184.3 168.136C1184.81 167.47 1185.53 166.39 1186.21 165.382C1186.18 166.516 1186.16 167.47 1186.14 168.55C1186.14 168.838 1186.12 169.576 1186.09 170.044H1189.07C1189.02 169.594 1188.95 168.82 1188.93 168.496C1188.8 166.768 1188.8 165.004 1188.8 163.636C1188.8 163.258 1188.8 162.862 1188.82 162.448C1190.26 161.17 1191.81 160.324 1193.63 160.324C1195.1 160.324 1196.26 161.314 1196.26 162.736C1196.26 165.382 1194.26 166.588 1191.04 167.092L1192.33 169.72C1197.1 168.766 1199.19 166.444 1199.19 162.79C1199.19 159.838 1197.01 157.768 1194.1 157.768C1192.55 157.768 1190.78 158.2 1189.04 159.406C1189.06 159.352 1189.06 159.298 1189.06 159.226C1189.38 158.758 1189.79 158.11 1190.03 157.804L1189.34 156.886C1189.49 155.806 1189.63 154.888 1189.76 154.33L1186.61 154.24C1186.72 154.852 1186.7 155.428 1186.7 156.004ZM1202.39 161.134L1203.51 163.96C1205.27 163.204 1208.66 161.8 1210.67 161.8C1212.1 161.8 1213 162.628 1213 163.87C1213 166.048 1210.17 167.128 1205.94 167.236L1207.11 169.918C1213.3 169.54 1215.91 167.056 1215.91 163.924C1215.91 161.044 1213.97 159.262 1210.94 159.262C1208.73 159.262 1205.63 160.27 1204.43 160.63C1203.91 160.792 1202.93 161.044 1202.39 161.134ZM1218.26 156.382L1218.53 159.352C1220.69 158.866 1223.85 158.506 1225.4 158.344C1224.43 159.226 1223.12 161.134 1223.12 163.6C1223.12 167.434 1226.55 169.612 1230.57 169.918L1231.59 166.894C1228.48 166.714 1226 165.67 1226 163.024C1226 160.882 1227.67 158.776 1229.61 158.344C1230.6 158.146 1232.13 158.146 1233.07 158.128L1233.05 155.32C1231.74 155.374 1229.61 155.5 1227.81 155.644C1224.52 155.932 1221.8 156.148 1220.11 156.292C1219.77 156.328 1218.98 156.364 1218.26 156.382ZM1243.8 154.384L1240.81 154.096C1240.77 155.014 1240.61 156.058 1240.36 157.03C1239.89 157.066 1239.42 157.084 1238.96 157.084C1238.36 157.084 1237.28 157.048 1236.45 156.958L1236.65 159.478C1237.48 159.532 1238.22 159.55 1238.97 159.55C1239.17 159.55 1239.35 159.55 1239.55 159.532C1238.76 161.404 1237.39 163.924 1235.99 165.688L1238.61 167.02C1240.07 164.95 1241.58 161.8 1242.43 159.262C1243.65 159.1 1244.75 158.848 1245.49 158.65L1245.42 156.148C1244.81 156.328 1244.05 156.508 1243.2 156.67C1243.46 155.77 1243.67 154.942 1243.8 154.384ZM1242.9 166.822C1242.9 166.3 1243.46 165.94 1244.34 165.94C1244.77 165.94 1245.17 165.994 1245.56 166.066V166.156C1245.56 167.164 1245.24 167.794 1244.16 167.794C1243.4 167.794 1242.9 167.398 1242.9 166.822ZM1248.01 160.018H1245.27C1245.33 161.026 1245.4 162.52 1245.47 163.798C1245.17 163.762 1244.84 163.744 1244.52 163.744C1241.75 163.744 1240.32 165.292 1240.32 167.092C1240.32 169.18 1242.18 170.296 1244.55 170.296C1247.22 170.296 1248.15 169 1248.21 167.272C1249.09 167.884 1249.83 168.586 1250.39 169.108L1251.83 166.768C1250.93 165.94 1249.67 165.022 1248.1 164.428C1248.06 163.672 1248.03 162.97 1248.01 162.538C1247.99 161.656 1247.96 160.792 1248.01 160.018ZM1250.82 161.242L1252.37 158.938C1251.39 158.272 1249.07 157.03 1247.78 156.472L1246.37 158.632C1247.63 159.19 1249.74 160.396 1250.82 161.242ZM1258.14 155.968L1254.8 155.932C1254.92 156.562 1254.96 157.336 1254.96 157.876C1254.96 159.01 1254.98 161.08 1255.16 162.79C1255.66 167.704 1257.42 169.522 1259.57 169.522C1261.13 169.522 1262.28 168.406 1263.54 165.22L1261.35 162.52C1261.08 163.744 1260.45 165.994 1259.62 165.994C1258.58 165.994 1258.22 164.338 1258 161.98C1257.89 160.774 1257.89 159.604 1257.89 158.416C1257.89 157.894 1258 156.724 1258.14 155.968ZM1266.95 156.31L1264.16 157.21C1266.26 159.514 1267.14 164.248 1267.4 166.966L1270.29 165.85C1270.13 163.258 1268.71 158.38 1266.95 156.31ZM1285.29 154.528H1282.14C1282.21 154.816 1282.32 155.41 1282.35 155.86C1282.39 156.346 1282.43 157.174 1282.43 158.074C1281.78 158.092 1281.13 158.11 1280.52 158.11C1279.56 158.11 1278.83 158.056 1277.89 157.93V160.684C1278.84 160.72 1279.85 160.774 1280.59 160.774C1281.2 160.774 1281.83 160.774 1282.46 160.756V161.458C1282.46 164.248 1282.05 165.616 1280.99 166.912C1280.45 167.542 1279.46 168.19 1278.68 168.532L1281.2 170.512C1284.66 168.208 1285.16 165.778 1285.16 161.476V160.648C1286.13 160.594 1287.02 160.54 1287.7 160.486L1287.72 157.66C1287.03 157.768 1286.13 157.858 1285.16 157.93C1285.16 157.03 1285.16 156.22 1285.18 155.86C1285.2 155.446 1285.22 154.978 1285.29 154.528ZM1276.41 154.852L1273.19 154.546C1273.17 155.068 1273.16 155.752 1273.07 156.292C1272.83 157.75 1272.53 160.522 1272.53 163.492C1272.53 165.706 1273.19 168.316 1273.61 169.396L1276.05 169.162C1276.04 168.874 1276.02 168.532 1276.02 168.334C1276.02 168.136 1276.07 167.704 1276.14 167.416C1276.38 166.318 1276.81 164.518 1277.4 162.808L1276.07 161.944C1275.8 162.466 1275.5 163.222 1275.26 163.654C1274.9 161.836 1275.55 158.146 1275.93 156.49C1276.02 156.094 1276.23 155.356 1276.41 154.852ZM1294.74 154.744L1292 155.86C1292.79 157.732 1293.64 159.586 1294.47 161.116C1292.81 162.376 1291.53 163.852 1291.53 165.904C1291.53 169.234 1294.4 170.242 1298.1 170.242C1300.5 170.242 1302.3 170.062 1303.94 169.774L1303.97 166.642C1302.26 167.02 1299.81 167.326 1298.03 167.326C1295.73 167.326 1294.58 166.768 1294.58 165.58C1294.58 164.392 1295.58 163.438 1296.97 162.52C1298.55 161.512 1300.07 160.81 1301.15 160.288C1301.87 159.928 1302.51 159.586 1303.16 159.208L1301.79 156.634C1301.27 157.066 1300.68 157.426 1299.92 157.858C1299.17 158.29 1298.07 158.866 1296.92 159.532C1296.2 158.2 1295.4 156.562 1294.74 154.744ZM1303.32 154.42L1301.63 155.104C1302.12 155.806 1302.64 156.868 1303.02 157.606L1304.73 156.886C1304.4 156.256 1303.77 155.086 1303.32 154.42ZM1305.54 153.556L1303.85 154.24C1304.33 154.924 1304.91 155.986 1305.27 156.724L1306.96 156.004C1306.65 155.392 1306.01 154.24 1305.54 153.556ZM1199.08 186.99V184.272H1192.17C1192.31 182.688 1192.33 181.104 1192.35 179.61H1189.47C1189.45 181.104 1189.47 182.688 1189.34 184.272H1182.95V186.99H1188.91C1188.19 189.924 1186.54 192.624 1182.59 194.406C1183.37 194.982 1184.16 195.918 1184.57 196.638C1188.12 194.874 1190.03 192.372 1191.05 189.6C1192.44 192.786 1194.42 195.18 1197.59 196.638C1198 195.882 1198.88 194.73 1199.53 194.154C1196.22 192.876 1194.13 190.248 1192.96 186.99H1199.08ZM1217.08 185.262V182.706H1212.33C1212.35 181.806 1212.37 180.888 1212.37 179.916H1209.47C1209.47 180.906 1209.47 181.824 1209.45 182.706H1200.95V185.262H1209.36C1209.23 187.404 1208.86 189.15 1207.83 190.554C1206.59 189.294 1205.74 187.674 1205.17 185.694L1202.66 186.288C1203.47 188.79 1204.46 190.788 1205.87 192.336C1204.64 193.092 1202.99 193.704 1200.79 194.172C1201.37 194.748 1202.05 195.792 1202.3 196.494C1204.75 195.918 1206.61 195.162 1208.01 194.19C1209.92 195.45 1212.38 196.242 1215.64 196.656C1215.97 195.918 1216.67 194.73 1217.23 194.136C1214.24 193.848 1211.9 193.236 1210.08 192.228C1211.5 190.374 1212.02 188.034 1212.22 185.262H1217.08ZM1235.12 189.654V186.954H1228.33C1228.35 186.504 1228.37 186.072 1228.37 185.64V184.506H1234.16V181.806H1228.37V179.61H1225.54V181.806H1220.14V184.506H1225.54V185.64C1225.54 186.072 1225.52 186.504 1225.49 186.954H1218.9V189.654H1224.86C1224.03 191.616 1222.25 193.38 1218.52 194.334C1219.06 194.892 1219.85 196.08 1220.14 196.764C1223.92 195.72 1225.99 193.884 1227.13 191.778C1228.57 194.172 1230.67 195.756 1234 196.584C1234.36 195.828 1235.12 194.676 1235.71 194.1C1232.29 193.47 1230.15 191.958 1228.85 189.654H1235.12ZM1243.42 190.212H1246.22C1246.06 187.836 1249.79 187.656 1249.79 185.064C1249.79 182.49 1247.72 181.32 1245.07 181.32C1243.16 181.32 1241.47 182.22 1240.36 183.588L1242.12 185.208C1242.91 184.38 1243.67 183.912 1244.69 183.912C1245.88 183.912 1246.73 184.362 1246.73 185.352C1246.73 186.936 1243.13 187.476 1243.42 190.212ZM1244.82 195.216C1245.88 195.216 1246.66 194.442 1246.66 193.38C1246.66 192.318 1245.88 191.58 1244.82 191.58C1243.76 191.58 1242.98 192.318 1242.98 193.38C1242.98 194.442 1243.74 195.216 1244.82 195.216Z" fill="black"/>
</svg>
