<svg xmlns="http://www.w3.org/2000/svg" viewBox="0 0 1937 237"><defs><style>.cls-1{fill:#ff632a;}.cls-2{fill:#ff3d33;}.cls-3{fill:#ff835c;}</style></defs><g id="レイヤー_2" data-name="レイヤー 2"><g id="livepaint"><path class="cls-1" d="M1926.81,88.67V207.06a29.57,29.57,0,0,1-19.46,27.82c-9.88-30.22-23.08-64.61-36.36-73.17-19.33-12.5-38.68,24.9-57.34,24.9-18.4,0-37.34-37.4-56-31.21-9.53,3.35-18.91,17.45-28.26,33a88.85,88.85,0,0,1,2.48-85.56,64.33,64.33,0,0,0,25.8-7.49c15-7.68,29.76-21.8,44.61-36.06,2-.16,4.07-.22,6.13-.22a88.56,88.56,0,0,1,59.91,23.25,29.59,29.59,0,0,1,58.51,6.3Zm-88.89,61.17a29.6,29.6,0,1,0-27.6,27.61A29.6,29.6,0,0,0,1837.92,149.84Z"/><path class="cls-2" d="M1907.35,234.88a29.63,29.63,0,0,1-39-21.44,88.81,88.81,0,0,1-138.94-25c9.35-15.6,18.73-29.7,28.26-33,18.68-6.19,37.62,31.21,56,31.21,18.66,0,38-37.4,57.34-24.9C1884.27,170.27,1897.47,204.66,1907.35,234.88Z"/><path class="cls-3" d="M1802.26,59.34c-14.85,14.26-29.64,28.38-44.61,36.06a64.33,64.33,0,0,1-25.8,7.49A88.7,88.7,0,0,1,1802.26,59.34Z"/><path class="cls-3" d="M1677.62,76.9a10.52,10.52,0,0,1,4,10.28c-12.55-7.42-24.7-15.88-37.34-21.12a70.33,70.33,0,0,0-36-5.38,89.9,89.9,0,0,1,16-1.59V59A88.51,88.51,0,0,1,1677.62,76.9Z"/><path class="cls-1" d="M1681.63,87.18a10.61,10.61,0,0,1-3.16,5.82l-28.68,26.87a10.53,10.53,0,0,1-12,1.65,30.06,30.06,0,0,0-12.64-3.24,29.6,29.6,0,0,0-1.89,59.13c.61,0,1.2.05,1.8.05a29.53,29.53,0,0,0,12.73-3.26,10.53,10.53,0,0,1,12,1.69l28.68,26.87a10.55,10.55,0,0,1-.85,16.1,88.62,88.62,0,0,1-53.28,17.85v-.05a88.8,88.8,0,0,1-16-176,70.33,70.33,0,0,1,36,5.38C1656.93,71.3,1669.08,79.76,1681.63,87.18Z"/><path class="cls-1" d="M1511.81,118.32a29.6,29.6,0,0,1-29.59,29.6h-88.8a29.57,29.57,0,0,0,29.6,29.59h59.2a29.6,29.6,0,0,1,0,59.2h-40.43a160.21,160.21,0,0,1-22.86-25.2c-19.07-24.9-37.34-62.3-57.35-81a65.25,65.25,0,0,0-27.23-16.94,88.42,88.42,0,0,1,24.88-57l2.35-.23c19.48-2.09,38.68-5.77,57.35-9.8s37.33-7.69,56,2A79.26,79.26,0,0,1,1485,54.79,88.44,88.44,0,0,1,1511.81,118.32Zm-118.39,0h59.18a29.59,29.59,0,1,0-59.18,0Z"/><path class="cls-3" d="M1485,54.79a79.26,79.26,0,0,0-10.09-6.33c-18.68-9.64-37.48-6-56-2s-37.87,7.71-57.35,9.8l-2.35.23A88.76,88.76,0,0,1,1485,54.79Z"/><path class="cls-2" d="M1441.79,236.71H1423a88.79,88.79,0,0,1-88.8-88.79v-29.6c0-1.61,0-3.18.13-4.76a65.25,65.25,0,0,1,27.23,16.94c20,18.71,38.28,56.11,57.35,81A160.21,160.21,0,0,0,1441.79,236.71Z"/><path class="cls-2" d="M1303.12,134.29a12.53,12.53,0,0,1-12.35,14.56H1255.7a12.51,12.51,0,0,1-11.93-8.8,29.6,29.6,0,0,0-57.81,6.87c0,.65,0,1.28,0,1.93h0v58.26a29.6,29.6,0,0,1-59.2,0V80.05c.76-1.08,1.51-2.16,2.29-3.19,2.41-.41,4.82-.76,7.23-1,18.94-1.83,37.34,1.83,56,5.86,19.33,4,38.66,7.71,57.33,3.93,2.58-.54,5.15-1.24,7.72-2.05,10.45,4.39,20.89,9.93,31.33,14.84A88.36,88.36,0,0,1,1303.12,134.29Z"/><path class="cls-2" d="M1288.62,98.44c-10.44-4.91-20.88-10.45-31.33-14.84,4.27-1.34,8.55-3,12.83-4.78A89,89,0,0,1,1288.62,98.44Z"/><path class="cls-3" d="M1270.12,78.82c-4.28,1.8-8.56,3.44-12.83,4.78q-3.86-1.63-7.72-3c-19.2-6.19-37.34-6.19-57.35-12.38-2.17-.79-4.35-1.66-6.54-2.54l.22-.56a89,89,0,0,1,84.22,13.72Z"/><path class="cls-1" d="M1249.57,80.58q3.87,1.38,7.72,3c-2.57.81-5.14,1.51-7.72,2.05-18.67,3.78-38,.11-57.33-3.93-18.68-4-37.08-7.69-56-5.86-2.41.24-4.82.59-7.23,1a78.58,78.58,0,0,1,7.23-8.66c16.45-16.18,33.22-9,49.46-2.54,2.19.88,4.37,1.75,6.54,2.54C1212.23,74.39,1230.37,74.39,1249.57,80.58Z"/><path class="cls-3" d="M1185.9,60.05v5l-.22.56c-16.24-6.49-33-13.64-49.46,2.54a78.58,78.58,0,0,0-7.23,8.66l-2.29.41V60.05a29.6,29.6,0,0,1,59.2,0Z"/><path class="cls-2" d="M1126.7,77.27l2.29-.41c-.78,1-1.53,2.11-2.29,3.19Z"/><path class="cls-1" d="M1083.19,87.24a88.54,88.54,0,0,1,5.6,31.08,29.44,29.44,0,0,1-6.14,18.05,10.75,10.75,0,0,1-2.44.32c-17.65-.32-35.53-41.83-52.79-29.47a29.6,29.6,0,0,0-57,11.1h48.45c-4,7.46-8,17.87-12,29.6H970.39a29.57,29.57,0,0,0,27,29.48c-6.65,21.15-13.31,42.4-20,56.42a88.76,88.76,0,0,1-41.75-24.65c-8.16-21-16.32-46.14-24.5-65.41V118.32a88.49,88.49,0,0,1,24.23-61c10.48,3.52,21,7.46,31.45,10.68,18.8,6,37.35,9.65,56,13.68,19.33,4,38.66,7.71,57.33,5.87C1081.21,87.49,1082.19,87.37,1083.19,87.24Z"/><path class="cls-3" d="M1083.19,87.24c-1,.13-2,.25-3,.35-18.67,1.84-38-1.83-57.33-5.87-18.67-4-37.22-7.69-56-13.68-10.45-3.22-21-7.16-31.45-10.68a88.82,88.82,0,0,1,147.78,29.88Z"/><path class="cls-2" d="M1082.65,136.37a29.59,29.59,0,0,1-23.46,11.55h-52.31c4-11.73,8-22.14,12-29.6h10.74a29.5,29.5,0,0,0-2.16-11.1c17.26-12.36,35.14,29.15,52.79,29.47A10.75,10.75,0,0,0,1082.65,136.37Z"/><path class="cls-2" d="M1080.12,186.18a29.6,29.6,0,0,1-20.93,50.53H1000a89.11,89.11,0,0,1-22.55-2.89c6.64-14,13.3-35.27,20-56.42.85.08,1.72.11,2.6.11h59.21A29.51,29.51,0,0,1,1080.12,186.18Z"/><path class="cls-2" d="M911.18,143.76c8.18,19.27,16.34,44.4,24.5,65.41a88.5,88.5,0,0,1-24.5-61.25Z"/><path class="cls-2" d="M881.58,98.25V207.11a29.6,29.6,0,0,1-58.51,6.33A88.79,88.79,0,0,1,697.73,87.9c.35,0,.68,0,1-.06,11.65,18.53,23.5,41.93,35.38,54.85a29.9,29.9,0,0,0-.38,3.14,29.6,29.6,0,1,0,52.67-16.55c3.68-3.81,7.36-7.69,11.07-11.29,18.67-19.06,37.62-30.75,56-31.1C862.74,87.07,872.11,90,881.58,98.25Z"/><path class="cls-1" d="M881.58,46.16V98.25c-9.47-8.25-18.84-11.18-28.06-11.36-18.4.35-37.35,12-56,31.1-3.71,3.6-7.39,7.48-11.07,11.29a29.61,29.61,0,0,0-52.29,13.41c-11.88-12.92-23.73-36.32-35.38-54.85,14-1,27.87-5.63,42.74-15.91,4.94-3.7,9.94-8.11,15-12.71h0c2.25-.17,4.53-.26,6.82-.26a88.42,88.42,0,0,1,59.08,22.52V29.43c10.39,2.87,20.74,8,31.14,11.22A167.24,167.24,0,0,0,881.58,46.16Z"/><path class="cls-3" d="M881.58,29.52V46.16a167.24,167.24,0,0,1-28.06-5.51c-10.4-3.27-20.75-8.35-31.14-11.22a29.6,29.6,0,0,1,59.2.09Z"/><path class="cls-3" d="M756.47,59.22c-5,4.6-10,9-15,12.71-14.87,10.28-28.72,14.95-42.74,15.91l-.39-.62A88.5,88.5,0,0,1,756.47,59.22Z"/><path class="cls-1" d="M698.37,87.22l.39.62c-.35,0-.68,0-1,.06C697.93,87.67,698.14,87.44,698.37,87.22Z"/><path class="cls-2" d="M639.24,149.05v58.06a29.6,29.6,0,0,1-59.2,0V147.92A29.6,29.6,0,0,0,520.91,146c0,.65-.07,1.29-.07,1.93v59.19a29.6,29.6,0,0,1-59.2,0V96.72c17.62-4.43,35.45-15.21,53.16-18.92,19.08-3.77,37.35-.11,57.34,0,9.76-.06,19.82-1.15,30-1.85A90.41,90.41,0,0,1,639.24,149.05Z"/><path class="cls-1" d="M598.85,73.7c1.1.73,2.19,1.48,3.25,2.25-10.14.7-20.2,1.79-30,1.85-20-.11-38.26-3.77-57.34,0-17.71,3.71-35.54,14.49-53.16,18.92V60.23c17.73-9.22,35.58,1.63,53.16,8,18.68,6.19,37.88,6.19,57.34,6.19C581.07,74.39,590,74.39,598.85,73.7Z"/><path class="cls-3" d="M598.85,73.7c-8.89.69-17.78.69-26.71.69-19.46,0-38.66,0-57.34-6.19-17.58-6.34-35.43-17.19-53.16-8V59.12a29.6,29.6,0,0,1,59.2,0v5.05a88.85,88.85,0,0,1,30-5.05A87.26,87.26,0,0,1,598.85,73.7Z"/><path class="cls-2" d="M408,150.07v57a29.54,29.54,0,0,1-28.29,29.56c7.34-21.76,14.62-46.68,21.75-68.71Q404.75,158.66,408,150.07Z"/><path class="cls-1" d="M408,88.67v61.4q-3.24,8.58-6.54,17.84c-7.13,22-14.41,47-21.75,68.71-.44,0-.87,0-1.31,0a29.6,29.6,0,0,1-28.9-23.22,88.55,88.55,0,0,1-34.69,19.63c-7.71-21.39-15.42-43.23-23.12-55.63a29.61,29.61,0,1,0-23.9-9.48c-11.65,6.14-23.31,23.42-35.69,31.16a25.91,25.91,0,0,1-11.73,4.42A88.79,88.79,0,0,1,349.47,82.37a29.63,29.63,0,0,1,24.31-22.94c9.22,8.26,18.41,17.45,27.67,24.24Q404.72,86,408,87.94C408,88.19,408,88.42,408,88.67Z"/><path class="cls-3" d="M408,87.94q-3.25-1.93-6.53-4.27c-9.26-6.79-18.45-16-27.67-24.24a28.12,28.12,0,0,1,4.61-.36A29.6,29.6,0,0,1,408,87.94Z"/><path class="cls-2" d="M291.68,177.44c7.7,12.4,15.41,34.24,23.12,55.63a88.9,88.9,0,0,1-94.44-29.53,25.91,25.91,0,0,0,11.73-4.42c12.38-7.74,24-25,35.69-31.16a29.55,29.55,0,0,0,23.7,9.49Z"/><path class="cls-2" d="M184.14,75.94V88.72a88.34,88.34,0,0,1-17.39,52.78c-9.14-21.21-18.25-45.35-27.35-62.68,12.19,2.44,24.51,1.54,36.69-1C178.78,77.26,181.47,76.64,184.14,75.94Z"/><path class="cls-3" d="M184.14,29.52V75.94c-2.67.7-5.36,1.32-8,1.86-12.18,2.56-24.5,3.46-36.69,1-4.81-9.18-9.63-16.46-14.46-20.36V29.52a29.6,29.6,0,1,1,59.2,0Z"/><path class="cls-2" d="M139.4,78.82c9.1,17.33,18.21,41.47,27.35,62.68a89,89,0,0,1-41.81,31v34.65a29.6,29.6,0,1,1-59.19,0V172.46a87.68,87.68,0,0,1-17.67-8.56c4.8-8.24,9.75-17.32,14.67-27.21,4.16-8.4,8.35-17.38,12.58-26.18a29.6,29.6,0,0,0,49.56-19.87c0-.64,0-1.29,0-1.92V74.29A69.18,69.18,0,0,0,139.4,78.82Z"/><path class="cls-1" d="M139.4,78.82a69.18,69.18,0,0,1-14.46-4.53V58.46C129.77,62.36,134.59,69.64,139.4,78.82Z"/><path class="cls-1" d="M65.76,88.72a29.51,29.51,0,0,0,9.57,21.79c-4.23,8.8-8.42,17.78-12.58,26.18-4.92,9.89-9.87,19-14.67,27.21A88.76,88.76,0,0,1,6.73,94.47V81.72l9.48-9.79c9.32-9.64,27.86-29.45,46.54-29.34,1,0,2,0,3,.14v46Z"/><path class="cls-3" d="M65.75,29.52V42.73c-1-.1-2-.14-3-.14-18.68-.11-37.22,19.7-46.54,29.34L6.73,81.72V26.29a29.6,29.6,0,0,1,59,3.23Z"/><path class="cls-2" d="M6.73,81.72V94.47c-.12-1.9-.18-3.81-.18-5.75V29.52a28.74,28.74,0,0,1,.18-3.23Z"/></g></g></svg>